<?xml version="1.0" encoding="utf-8"?>
<!-- Generator: Adobe Illustrator 16.0.4, SVG Export Plug-In . SVG Version: 6.00 Build 0)  -->
<!DOCTYPE svg PUBLIC "-//W3C//DTD SVG 1.1//EN" "http://www.w3.org/Graphics/SVG/1.1/DTD/svg11.dtd">
<svg version="1.1" id="Ebene_1" xmlns="http://www.w3.org/2000/svg" xmlns:xlink="http://www.w3.org/1999/xlink" x="0px" y="0px"
	 width="481.89px" height="198.425px" viewBox="0 0 481.89 198.425" enable-background="new 0 0 481.89 198.425"
	 xml:space="preserve">
<path fill="#FEDE45" d="M23.038,75.907h-6.213c-1.191,0-11.653-0.347-11.757-12.441c-0.011-1.258-0.022-4.331-0.03-8.837
	L5.023,18.337c0-3.524,0.474-7.605,3.999-11.134c3.64-3.64,10.331-3.883,10.379-3.883c0,0,96.524-0.052,164.84-0.052
	c39.66,0,61.774,0.019,65.717,0.052c3.925,0.033,7.001,1.165,9.145,3.364c3.342,3.432,3.297,8.378,3.297,8.442v6.624h1.399v-6.608
	c0.004-0.228,0.067-5.563-3.685-9.424c-2.412-2.483-5.824-3.76-10.145-3.801c-3.946-0.033-26.065-0.048-65.729-0.048
	c-68.319,0-164.843,0.048-164.862,0.048c-0.295,0.011-7.311,0.258-11.347,4.298c-3.887,3.887-4.414,8.311-4.414,12.123v36.295
	l0.019,0.784c0.008,4.085,0.019,6.877,0.026,8.061c0.12,13.662,12.605,13.83,13.21,13.83l6.164,0.026V75.907z"/>
<path fill="#9C9E9F" d="M44.528,123.455c-0.649,0.134-1.855,0.556-3.2,0.556c-2.737,0-4.264-1.206-4.264-4.779v-17.578h-3.387
	v-2.314h3.387v-6.68h2.778v6.68h4.503v2.314h-4.503v16.47c0,2.363,0.093,3.383,2.416,3.383c0.739,0,1.531-0.142,2.27-0.325V123.455z
	"/>
<path fill="#9C9E9F" d="M66.373,109.679c0-4.686-2.599-8.487-7.605-8.487c-4.917,0-7.516,3.943-8.072,8.487H66.373z M50.695,111.998
	c-0.045,5.193,2.74,9.506,8.072,9.506c3.614,0,6.448-1.993,7.277-5.521h3.11c-1.393,4.551-4.268,8.027-10.387,8.027
	c-7.703,0-11.041-5.47-11.041-12.567c0-7.005,4.174-12.755,11.041-12.755c6.583,0,10.619,4.686,10.57,13.311H50.695z"/>
<path fill="#9C9E9F" d="M91.785,106.897c-0.975-3.569-3.435-5.705-7.146-5.705c-5.701,0-8.069,5.193-8.069,10.204
	c0,5.052,2.319,10.107,8.069,10.107c4.129,0,6.725-2.457,7.374-6.444h2.972c-0.975,5.331-4.316,8.949-10.346,8.949
	c-7.65,0-11.037-5.519-11.037-12.612c0-6.68,3.85-12.71,11.037-12.71c5.522,0,9.136,2.644,9.973,8.211H91.785z"/>
<path fill="#9C9E9F" d="M100.544,123.362V89.968h2.781v12.706c2.229-2.359,4.406-3.987,7.744-3.987c2.924,0,5.62,0.93,7.33,3.432
	c1.157,1.717,1.206,3.524,1.206,5.521v15.723h-2.782v-15.678c0-4.312-1.762-6.493-6.217-6.493c-3.431,0-5.794,2.226-6.676,4.687
	c-0.556,1.53-0.605,2.875-0.605,4.544v12.94H100.544z"/>
<path fill="#9C9E9F" d="M129.109,123.362h-2.782V99.335h2.782v3.338c2.225-2.359,4.406-3.987,7.744-3.987
	c2.924,0,5.612,0.93,7.33,3.432c1.157,1.717,1.206,3.524,1.206,5.521v15.723h-2.785v-15.678c0-4.312-1.759-6.493-6.213-6.493
	c-3.431,0-5.798,2.226-6.68,4.687c-0.556,1.53-0.601,2.875-0.601,4.544V123.362z"/>
<path fill="#9C9E9F" d="M161.663,101.193c-5.847,0-8.166,4.962-8.166,10.155c0,5.981,2.834,10.156,8.166,10.156
	c5.843,0,8.162-5.007,8.162-10.156C169.776,105.692,167.555,101.193,161.663,101.193 M150.529,111.348
	c0-7.004,3.715-12.661,11.134-12.661c7.512,0,11.126,5.612,11.126,12.661c0,7.605-4.402,12.661-11.126,12.661
	C155.544,123.917,150.529,119.742,150.529,111.348"/>
<rect x="3.621" y="1.867" fill="none" width="476.269" height="195.494"/>
<rect x="178.306" y="89.968" fill="#9C9E9F" width="2.782" height="33.394"/>
<path fill="#9C9E9F" d="M197.736,101.193c-5.84,0-8.162,4.962-8.162,10.155c0,5.981,2.834,10.156,8.162,10.156
	c5.847,0,8.166-5.007,8.166-10.156C205.853,105.692,203.627,101.193,197.736,101.193 M186.609,111.348
	c0-7.004,3.708-12.661,11.126-12.661c7.516,0,11.134,5.612,11.134,12.661c0,7.605-4.406,12.661-11.134,12.661
	C191.616,123.917,186.609,119.742,186.609,111.348"/>
<path fill="#9C9E9F" d="M224.402,101.192c-4.686,0-8.162,3.387-8.207,9.413c-0.235,6.034,2.453,10.898,8.207,10.898
	c5.055,0,8.117-4.633,8.117-10.065C232.52,105.643,229.645,101.192,224.402,101.192 M232.52,99.337h2.778v21.704
	c0,6.448-2.132,12.153-11.269,12.153c-7.049,0-9.969-4.036-10.156-6.911h2.972c0.833,3.618,3.891,4.406,7.184,4.406
	c7.609,0,8.628-5.657,8.491-11.179c-1.766,2.919-5.194,4.499-8.58,4.499c-7.33,0-10.72-5.981-10.72-12.706
	c0-7.098,3.11-12.616,10.858-12.616c3.062,0,6.728,1.714,8.349,4.872h0.093V99.337z"/>
<rect x="3.621" y="1.867" fill="none" width="476.269" height="195.494"/>
<path fill="#9C9E9F" d="M242.717,123.362h2.785V99.335h-2.785V123.362z M242.578,94.093h3.062v-4.125h-3.062V94.093z"/>
<path fill="#9C9E9F" d="M269.982,109.679c0-4.686-2.596-8.487-7.603-8.487c-4.921,0-7.512,3.943-8.068,8.487H269.982z
	 M254.312,111.998c-0.052,5.193,2.733,9.506,8.068,9.506c3.618,0,6.444-1.993,7.281-5.521h3.106
	c-1.39,4.551-4.265,8.027-10.388,8.027c-7.698,0-11.04-5.47-11.04-12.567c0-7.005,4.178-12.755,11.04-12.755
	c6.583,0,10.619,4.686,10.574,13.311H254.312z"/>
<path fill="#9C9E9F" d="M279.996,115.848c0.886,4.129,3.018,5.656,7.188,5.656c4.04,0,5.94-2.132,5.94-4.454
	c0-6.956-15.397-2.039-15.397-11.5c0-3.987,3.11-6.862,8.438-6.862c5.193,0,8.58,2.132,9.278,7.561h-2.83
	c-0.508-3.711-3.014-5.056-6.493-5.056c-3.525,0-5.426,1.669-5.426,4.126c0,6.541,15.398,2.461,15.398,11.687
	c0,4.593-4.13,7.005-9.786,7.005c-5.66,0-8.905-3.618-9.137-8.162H279.996z"/>
<path fill="#CFD1D2" d="M297.573,154.656h2.972v-2.916h-2.972V154.656z M284.603,150.167c-0.06,3.334,2.763,4.809,5.754,4.809
	c3.692,0,5.626-1.855,5.626-4.334c0-3.051-3.013-3.712-4.018-3.939c-3.386-0.852-4.032-1.005-4.032-2.046
	c0-1.136,1.098-1.535,2.046-1.535c1.438,0,2.577,0.438,2.67,2.047h2.879c0-3.126-2.595-4.354-5.418-4.354
	c-2.441,0-5.056,1.303-5.056,4.088c0,2.498,2.028,3.353,4.037,3.842c1.967,0.549,4.014,0.758,4.014,2.236
	c0,1.382-1.591,1.685-2.633,1.685c-1.591,0-2.994-0.698-2.994-2.498H284.603z M272.312,150.167
	c-0.057,3.334,2.767,4.809,5.757,4.809c3.692,0,5.623-1.855,5.623-4.334c0-3.051-3.01-3.712-4.014-3.939
	c-3.391-0.852-4.032-1.005-4.032-2.046c0-1.136,1.098-1.535,2.042-1.535c1.441,0,2.576,0.438,2.674,2.047h2.875
	c0-3.126-2.592-4.354-5.414-4.354c-2.442,0-5.056,1.303-5.056,4.088c0,2.498,2.027,3.353,4.032,3.842
	c1.968,0.549,4.014,0.758,4.014,2.236c0,1.382-1.59,1.685-2.632,1.685c-1.591,0-2.991-0.698-2.991-2.498H272.312z M260.894,154.656
	h10.264v-2.502h-7.292v-3.312h6.553v-2.312h-6.553v-2.897h7.139v-2.498h-10.11V154.656z M258.754,145.679
	c-0.358-3.125-2.879-4.864-5.832-4.864c-4.167,0-6.646,3.121-6.646,7.135c0,3.901,2.479,7.026,6.646,7.026
	c3.334,0,5.646-2.139,5.948-5.529h-2.879c-0.228,1.8-1.251,3.032-3.069,3.032c-2.67,0-3.674-2.274-3.674-4.529
	c0-2.363,1.004-4.638,3.674-4.638c1.46,0,2.744,1.023,2.953,2.367H258.754z M244.723,145.679c-0.358-3.125-2.879-4.864-5.832-4.864
	c-4.167,0-6.646,3.121-6.646,7.135c0,3.901,2.479,7.026,6.646,7.026c3.334,0,5.642-2.139,5.947-5.529h-2.878
	c-0.228,1.8-1.251,3.032-3.069,3.032c-2.669,0-3.674-2.274-3.674-4.529c0-2.363,1.004-4.638,3.674-4.638
	c1.46,0,2.748,1.023,2.953,2.367H244.723z M230.277,141.135h-2.972v8.405c0,2.027-0.683,2.938-2.804,2.938
	c-2.405,0-2.786-1.46-2.786-2.938v-8.405h-2.972v8.405c0,3.696,2.102,5.436,5.757,5.436c3.614,0,5.776-1.78,5.776-5.436V141.135z
	 M205.661,150.167c-0.056,3.334,2.763,4.809,5.757,4.809c3.692,0,5.623-1.855,5.623-4.334c0-3.051-3.01-3.712-4.014-3.939
	c-3.39-0.852-4.036-1.005-4.036-2.046c0-1.136,1.101-1.535,2.046-1.535c1.441,0,2.576,0.438,2.669,2.047h2.879
	c0-3.126-2.595-4.354-5.414-4.354c-2.445,0-5.055,1.303-5.055,4.088c0,2.498,2.023,3.353,4.032,3.842
	c1.968,0.549,4.014,0.758,4.014,2.236c0,1.382-1.59,1.685-2.632,1.685c-1.59,0-2.991-0.698-2.991-2.498H205.661z M187.578,154.656
	h2.972v-5.283h2.972c1.498,0,2.046,0.623,2.255,2.046c0.149,1.079,0.131,2.382,0.471,3.237h2.976
	c-0.549-0.739-0.512-2.349-0.567-3.2c-0.097-1.382-0.512-2.767-1.972-3.162v-0.038c1.516-0.608,2.14-1.799,2.14-3.39
	c0-2.046-1.531-3.73-3.958-3.73h-7.288V154.656z M190.55,143.447h3.256c1.348,0,2.046,0.563,2.046,1.871
	c0,1.366-0.698,1.934-2.046,1.934h-3.256V143.447z M172.259,147.95c0,3.901,2.479,7.026,6.646,7.026s6.646-3.125,6.646-7.026
	c0-4.014-2.479-7.135-6.646-7.135S172.259,143.936,172.259,147.95 M175.231,147.95c0-2.363,1.004-4.638,3.674-4.638
	s3.674,2.274,3.674,4.638c0,2.255-1.004,4.529-3.674,4.529S175.231,150.205,175.231,147.95 M161.618,154.656h2.972v-5.586h5.664
	v-2.312h-5.664v-3.125h6.534v-2.498h-9.506V154.656z M144.084,154.656h10.264v-2.502h-7.292v-3.312h6.553v-2.312h-6.553v-2.897
	h7.139v-2.498h-10.111V154.656z M142.927,141.135h-3.065l-3.05,9.507h-0.038l-3.009-9.507h-3.065l4.391,13.521h3.353
	L142.927,141.135z M126.569,154.656h2.972v-13.521h-2.972V154.656z M112.896,154.656h2.976v-5.283h2.972
	c1.494,0,2.042,0.623,2.251,2.046c0.153,1.079,0.134,2.382,0.474,3.237h2.972c-0.549-0.739-0.512-2.349-0.567-3.2
	c-0.094-1.382-0.512-2.767-1.968-3.162v-0.038c1.512-0.608,2.139-1.799,2.139-3.39c0-2.046-1.534-3.73-3.958-3.73h-7.292V154.656z
	 M115.872,143.447h3.256c1.344,0,2.046,0.563,2.046,1.871c0,1.366-0.702,1.934-2.046,1.934h-3.256V143.447z M98.869,154.656h5.829
	c4.129,0,6.138-2.916,6.138-6.837c0-4.469-2.632-6.684-6.138-6.684h-5.829V154.656z M101.841,143.633h2.117
	c2.938,0,3.901,1.744,3.901,4.47c0,2.99-1.646,4.051-3.371,4.051h-2.647V143.633z M79.932,154.656h2.972v-5.283h2.972
	c1.497,0,2.046,0.623,2.255,2.046c0.149,1.079,0.13,2.382,0.474,3.237h2.972c-0.548-0.739-0.511-2.349-0.567-3.2
	c-0.097-1.382-0.511-2.767-1.971-3.162v-0.038c1.516-0.608,2.139-1.799,2.139-3.39c0-2.046-1.531-3.73-3.958-3.73h-7.288V154.656z
	 M82.903,143.447h3.26c1.344,0,2.042,0.563,2.042,1.871c0,1.366-0.698,1.934-2.042,1.934h-3.26V143.447z M77.374,141.135h-2.972
	v8.405c0,2.027-0.68,2.938-2.8,2.938c-2.408,0-2.785-1.46-2.785-2.938v-8.405h-2.972v8.405c0,3.696,2.102,5.436,5.757,5.436
	c3.614,0,5.772-1.78,5.772-5.436V141.135z M50.581,147.95c0,3.901,2.483,7.026,6.646,7.026c4.167,0,6.646-3.125,6.646-7.026
	c0-4.014-2.479-7.135-6.646-7.135C53.063,140.815,50.581,143.936,50.581,147.95 M53.557,147.95c0-2.363,1-4.638,3.67-4.638
	c2.673,0,3.674,2.274,3.674,4.638c0,2.255-1.001,4.529-3.674,4.529C54.557,152.479,53.557,150.205,53.557,147.95 M42.042,154.656
	h2.972v-5.19l5.018-8.33H46.72l-3.144,5.34l-3.163-5.34h-3.353l4.98,8.256V154.656z"/>
<path fill="#FEDE45" d="M459.284,151.886h-149.83v10.615c0,6.848,5.772,12.452,12.829,12.452h137.001V151.886z"/>
<rect x="3.621" y="1.867" fill="none" width="476.269" height="195.494"/>
<rect x="309.453" y="151.272" fill="#FEDE45" width="166.542" height="1.485"/>
<rect x="458.536" y="98.062" fill="#FEDE45" width="1.482" height="76.892"/>
<path fill="#9C9E9F" d="M322.3,136.037h4.387l-2.153-6.041h-0.038L322.3,136.037z M323.588,128.438h1.904l5.06,12.945h-1.904
	l-1.415-3.898h-5.474l-1.453,3.898h-1.776L323.588,128.438z"/>
<path fill="#9C9E9F" d="M331.562,132.009h1.448v1.486h0.037c0.653-1.161,1.703-1.702,3.047-1.702c2.464,0,3.226,1.415,3.226,3.424
	v6.164h-1.542v-6.344c0-1.143-0.724-1.886-1.9-1.886c-1.87,0-2.777,1.251-2.777,2.936v5.294h-1.538V132.009z"/>
<path fill="#9C9E9F" d="M343.779,132.009h1.866v1.359h-1.866v5.821c0,0.705,0.197,0.832,1.161,0.832h0.705v1.359h-1.18
	c-1.595,0-2.229-0.325-2.229-2.05v-5.963h-1.594v-1.359h1.594v-2.812h1.543V132.009z"/>
<path fill="#9C9E9F" d="M347.295,132.009h1.448v1.979h0.037c0.743-1.505,1.777-2.248,3.442-2.195v1.632
	c-2.482,0-3.39,1.415-3.39,3.789v4.167h-1.538V132.009z"/>
<rect x="3.621" y="1.867" fill="none" width="476.269" height="195.494"/>
<path fill="#9C9E9F" d="M353.474,141.381h1.542v-9.372h-1.542V141.381z M353.474,130.326h1.542v-1.886h-1.542V130.326z"/>
<path fill="#9C9E9F" d="M363.915,135.798c-0.07-1.467-1.18-2.646-2.703-2.646c-1.608,0-2.572,1.217-2.681,2.646H363.915z
	 M365.401,138.409c-0.418,2.068-1.904,3.192-4.006,3.192c-2.991,0-4.406-2.068-4.496-4.933c0-2.812,1.849-4.876,4.406-4.876
	c3.315,0,4.331,3.099,4.241,5.365h-7.016c-0.056,1.632,0.87,3.08,2.92,3.08c1.266,0,2.154-0.616,2.427-1.829H365.401z"/>
<path fill="#9C9E9F" d="M371.544,133.15c-2.064,0-2.863,1.777-2.863,3.536c0,1.849,0.832,3.555,2.953,3.555
	c2.105,0,2.812-1.796,2.812-3.626C374.445,134.857,373.538,133.15,371.544,133.15 M367.194,128.438h1.542v4.843h0.034
	c0.508-1.034,1.706-1.489,2.99-1.489c2.883,0,4.316,2.285,4.316,4.932c0,2.647-1.415,4.877-4.279,4.877
	c-0.959,0-2.337-0.362-3.027-1.468h-0.034v1.251h-1.542V128.438z"/>
<path fill="#9C9E9F" d="M378.83,138.427c0.053,1.378,1.251,1.814,2.521,1.814c0.959,0,2.267-0.22,2.267-1.396
	c0-1.198-1.523-1.396-3.065-1.74c-1.523-0.347-3.062-0.854-3.062-2.646c0-1.886,1.866-2.666,3.498-2.666
	c2.064,0,3.715,0.653,3.842,2.938h-1.538c-0.112-1.198-1.161-1.579-2.177-1.579c-0.926,0-1.994,0.254-1.994,1.198
	c0,1.105,1.632,1.284,3.062,1.632c1.542,0.343,3.065,0.851,3.065,2.662c0,2.229-2.087,2.957-3.987,2.957
	c-2.105,0-3.883-0.855-3.973-3.174H378.83z"/>
<path fill="#9C9E9F" d="M389.089,132.009h1.867v1.359h-1.867v5.821c0,0.705,0.198,0.832,1.161,0.832h0.706v1.359h-1.177
	c-1.598,0-2.232-0.325-2.232-2.05v-5.963h-1.595v-1.359h1.595v-2.812h1.542V132.009z"/>
<path fill="#9C9E9F" d="M399.167,135.798c-0.074-1.467-1.18-2.646-2.703-2.646c-1.612,0-2.572,1.217-2.681,2.646H399.167z
	 M400.653,138.409c-0.414,2.068-1.904,3.192-4.006,3.192c-2.991,0-4.406-2.068-4.496-4.933c0-2.812,1.849-4.876,4.406-4.876
	c3.315,0,4.331,3.099,4.241,5.365h-7.016c-0.056,1.632,0.87,3.08,2.916,3.08c1.27,0,2.158-0.616,2.431-1.829H400.653z"/>
<path fill="#9C9E9F" d="M408.755,135.018c-0.239-1.18-1.053-1.866-2.322-1.866c-2.229,0-2.916,1.758-2.916,3.662
	c0,1.722,0.78,3.424,2.736,3.424c1.486,0,2.375-0.87,2.573-2.281h1.579c-0.348,2.281-1.777,3.645-4.134,3.645
	c-2.867,0-4.387-1.998-4.387-4.787c0-2.812,1.448-5.021,4.425-5.021c2.12,0,3.823,0.997,4.039,3.226H408.755z"/>
<path fill="#9C9E9F" d="M412.124,128.438h1.538v4.947h0.037c0.508-1.124,1.834-1.594,2.958-1.594c2.464,0,3.226,1.415,3.226,3.428
	v6.164h-1.542v-6.348c0-1.143-0.725-1.886-1.904-1.886c-1.867,0-2.774,1.251-2.774,2.938v5.295h-1.538V128.438z"/>
<path fill="#9C9E9F" d="M422.2,132.009h1.452v1.486h0.034c0.653-1.161,1.706-1.702,3.047-1.702c2.464,0,3.226,1.415,3.226,3.424
	v6.164h-1.538v-6.344c0-1.143-0.725-1.886-1.904-1.886c-1.867,0-2.774,1.251-2.774,2.936v5.294H422.2V132.009z"/>
<rect x="3.621" y="1.867" fill="none" width="476.269" height="195.494"/>
<path fill="#9C9E9F" d="M432.37,141.381h1.539v-9.372h-1.539V141.381z M432.37,130.326h1.539v-1.886h-1.539V130.326z"/>
<polygon fill="#9C9E9F" points="436.392,128.438 437.934,128.438 437.934,136.107 442.209,132.011 444.277,132.011 440.562,135.417 
	444.55,141.383 442.594,141.383 439.383,136.488 437.934,137.829 437.934,141.383 436.392,141.383 "/>
<polygon fill="#002C55" points="32.932,31.539 44.872,31.539 44.872,48.229 60.598,48.229 60.598,31.539 72.535,31.539 
	72.535,77.366 60.598,77.366 60.598,58.496 44.872,58.496 44.872,77.366 32.932,77.366 "/>
<rect x="80.531" y="31.539" fill="#002C55" width="11.94" height="45.828"/>
<polygon fill="#002C55" points="100.693,31.697 118.16,31.697 126,62.041 126.127,62.041 133.968,31.697 151.431,31.697 
	151.431,77.211 140.282,77.211 140.282,42.659 140.151,42.659 130.589,77.211 121.539,77.211 111.973,42.659 111.85,42.659 
	111.85,77.211 100.693,77.211 "/>
<polygon fill="#002C55" points="159.872,31.698 177.338,31.698 185.179,62.042 185.302,62.042 193.147,31.698 210.613,31.698 
	210.613,77.212 199.461,77.212 199.461,42.657 199.33,42.657 189.768,77.212 180.717,77.212 171.152,42.657 171.028,42.657 
	171.028,77.212 159.872,77.212 "/>
<polygon fill="#002C55" points="218.768,31.697 255.033,31.697 255.033,41.196 230.626,41.196 230.626,49.167 252.932,49.167 
	252.932,58.337 230.626,58.337 230.626,67.007 255.668,67.007 255.668,77.211 218.768,77.211 "/>
<polyline fill="#002C55" points="262.431,77.211 262.431,31.697 274.551,31.697 274.551,67.011 296.034,67.011 296.034,77.211 "/>
<path fill="#002C55" d="M293.857,36.511h1.777c1.501,0,2.879-0.071,2.879-1.796c0-1.452-1.255-1.68-2.401-1.68h-2.255V36.511z
	 M292.158,31.665h4.227c2.603,0,3.827,1.023,3.827,3.122c0,1.979-1.251,2.804-2.875,2.979l3.129,4.828h-1.829l-2.977-4.701h-1.803
	v4.701h-1.699V31.665z M295.81,45.118c4.328,0,7.677-3.45,7.677-8.027c0-4.477-3.349-7.931-7.677-7.931
	c-4.379,0-7.729,3.454-7.729,7.931C288.081,41.667,291.431,45.118,295.81,45.118 M295.81,27.786c5.104,0,9.38,4.025,9.38,9.305
	c0,5.376-4.275,9.401-9.38,9.401c-5.13,0-9.431-4.025-9.431-9.401C286.379,31.811,290.68,27.786,295.81,27.786"/>
<path fill="#002C55" d="M322.49,162.724c-1.464,0-2.031,1.259-2.031,2.506c0,1.313,0.594,2.52,2.095,2.52
	c1.49,0,1.994-1.272,1.994-2.572C324.548,163.93,323.905,162.724,322.49,162.724 M319.406,159.382h1.09v3.432h0.03
	c0.358-0.731,1.206-1.053,2.121-1.053c2.042,0,3.058,1.62,3.058,3.494c0,1.879-1.004,3.458-3.035,3.458
	c-0.68,0-1.658-0.258-2.144-1.042h-0.03v0.889h-1.09V159.382z"/>
<path fill="#002C55" d="M329.599,169.446c-0.501,1.3-0.952,1.773-1.931,1.773c-0.254,0-0.512-0.025-0.758-0.115v-1.001
	c0.205,0.063,0.426,0.153,0.642,0.153c0.452,0,0.694-0.221,0.9-0.604l0.451-1.132l-2.636-6.604h1.236l1.938,5.436h0.03l1.862-5.436
	h1.154L329.599,169.446z"/>
<rect x="3.621" y="1.867" fill="none" width="476.269" height="195.494"/>
<polygon fill="#002C55" points="337.154,159.382 338.454,159.382 343.285,166.824 343.312,166.824 343.312,159.382 344.469,159.382 
	344.469,168.56 343.128,168.56 338.338,161.197 338.312,161.197 338.312,168.56 337.154,168.56 "/>
<path fill="#002C55" d="M350.88,164.599c-0.052-1.041-0.836-1.874-1.915-1.874c-1.143,0-1.825,0.862-1.9,1.874H350.88z
	 M351.934,166.452c-0.295,1.463-1.349,2.263-2.838,2.263c-2.121,0-3.125-1.468-3.188-3.495c0-1.994,1.311-3.458,3.121-3.458
	c2.353,0,3.073,2.196,3.01,3.802h-4.974c-0.041,1.157,0.616,2.188,2.068,2.188c0.9,0,1.531-0.437,1.722-1.299H351.934z"/>
<path fill="#002C55" d="M358.668,168.559h-1.026v-1.053h-0.026c-0.463,0.821-1.21,1.206-2.158,1.206
	c-1.751,0-2.289-1.001-2.289-2.427v-4.372h1.091v4.499c0,0.811,0.515,1.337,1.352,1.337c1.325,0,1.964-0.889,1.964-2.08v-3.756
	h1.094V168.559z"/>
<path fill="#002C55" d="M363.167,167.75c1.464,0,2.031-1.259,2.031-2.506c0-1.311-0.594-2.52-2.095-2.52
	c-1.49,0-1.994,1.272-1.994,2.572C361.109,166.543,361.752,167.75,363.167,167.75 M366.251,168.559h-1.094v-0.899h-0.022
	c-0.362,0.731-1.21,1.053-2.121,1.053c-2.046,0-3.062-1.617-3.062-3.495s1.004-3.457,3.035-3.457c0.68,0,1.658,0.258,2.147,1.042
	h0.022v-3.42h1.094V168.559z"/>
<path fill="#002C55" d="M372.549,164.599c-0.052-1.041-0.836-1.874-1.915-1.874c-1.143,0-1.826,0.862-1.9,1.874H372.549z
	 M373.602,166.452c-0.295,1.463-1.348,2.263-2.841,2.263c-2.121,0-3.121-1.468-3.185-3.495c0-1.994,1.31-3.458,3.121-3.458
	c2.352,0,3.072,2.196,3.009,3.802h-4.973c-0.041,1.157,0.616,2.188,2.068,2.188c0.899,0,1.53-0.437,1.721-1.299H373.602z"/>
<path fill="#002C55" d="M379.347,164.048c-0.168-0.837-0.743-1.322-1.646-1.322c-1.58,0-2.064,1.243-2.064,2.595
	c0,1.222,0.552,2.427,1.938,2.427c1.053,0,1.684-0.615,1.825-1.616h1.117c-0.243,1.616-1.259,2.58-2.932,2.58
	c-2.027,0-3.106-1.411-3.106-3.391c0-1.993,1.027-3.562,3.133-3.562c1.505,0,2.715,0.705,2.867,2.289H379.347z"/>
<rect x="3.621" y="1.867" fill="none" width="476.269" height="195.494"/>
<polygon fill="#002C55" points="381.802,159.382 382.892,159.382 382.892,164.819 385.927,161.915 387.391,161.915 384.759,164.33 
	387.585,168.56 386.196,168.56 383.922,165.091 382.892,166.04 382.892,168.56 381.802,168.56 "/>
<path fill="#002C55" d="M393.021,164.599c-0.052-1.041-0.836-1.874-1.915-1.874c-1.143,0-1.825,0.862-1.904,1.874H393.021z
	 M394.075,166.452c-0.295,1.463-1.348,2.263-2.842,2.263c-2.12,0-3.121-1.468-3.185-3.495c0-1.994,1.311-3.458,3.121-3.458
	c2.353,0,3.073,2.196,3.01,3.802h-4.978c-0.037,1.157,0.62,2.188,2.072,2.188c0.9,0,1.527-0.437,1.722-1.299H394.075z"/>
<path fill="#002C55" d="M395.271,161.915h1.027v1.4h0.026c0.526-1.064,1.262-1.595,2.441-1.554v1.154
	c-1.763,0-2.404,1.004-2.404,2.688v2.957h-1.091V161.915z"/>
<path fill="#002C55" d="M407.093,161.325c0-0.53-0.396-0.978-1.053-0.978c-0.516,0-1.053,0.31-1.053,0.978
	c0,0.553,0.489,1.091,0.885,1.591C406.402,162.583,407.093,162.094,407.093,161.325 M405.514,164.125
	c-0.862,0.489-1.595,0.978-1.595,2.068c0,0.926,0.862,1.557,1.748,1.557c0.836,0,1.504-0.426,1.952-1.094L405.514,164.125z
	 M408.225,167.415c-0.553,0.862-1.595,1.3-2.596,1.3c-2.479,0-2.867-1.763-2.867-2.506c0-1.441,0.979-2.162,2.147-2.777
	c-0.512-0.732-1.017-1.222-1.017-2.158c0-1.001,0.747-1.89,2.069-1.89c1.146,0,2.225,0.631,2.225,1.874
	c0,1.095-0.836,1.879-1.721,2.379l1.657,2.02c0.165-0.451,0.27-0.937,0.295-1.43h1.042c-0.09,1.083-0.235,1.456-0.62,2.263
	l1.789,2.072h-1.427L408.225,167.415z"/>
<path fill="#002C55" d="M419.676,166.272c0,1.247-0.657,2.505-2.711,2.505c-1.71,0-2.674-0.952-2.674-2.673v-0.564h1.222v0.385
	c0,1.068,0.28,1.826,1.479,1.826c1.116,0,1.464-0.643,1.464-1.658v-6.709h1.221V166.272z"/>
<path fill="#002C55" d="M424.367,167.75c1.143,0,2.068-0.9,2.068-2.506c0-1.62-0.926-2.52-2.068-2.52s-2.068,0.899-2.068,2.52
	C422.299,166.849,423.225,167.75,424.367,167.75 M424.367,161.76c2.105,0,3.227,1.531,3.227,3.483c0,1.941-1.121,3.469-3.227,3.469
	c-2.109,0-3.226-1.527-3.226-3.469C421.142,163.292,422.258,161.76,424.367,161.76"/>
<rect x="3.621" y="1.867" fill="none" width="476.269" height="195.494"/>
<rect x="428.943" y="159.381" fill="#002C55" width="1.09" height="9.178"/>
<path fill="#002C55" d="M431.796,168.559h1.09v-6.643h-1.09V168.559z M431.796,160.718h1.09v-1.337h-1.09V160.718z"/>
<path fill="#002C55" d="M436.1,161.915h1.325v0.963H436.1v4.126c0,0.504,0.142,0.594,0.821,0.594h0.504v0.963h-0.836
	c-1.132,0-1.58-0.231-1.58-1.452v-4.23h-1.131v-0.963h1.131v-1.994h1.091V161.915z"/>
<rect x="3.621" y="1.867" fill="none" width="476.269" height="195.494"/>
<polygon fill="#002C55" points="438.093,167.724 442.103,162.878 438.35,162.878 438.35,161.915 443.518,161.915 443.518,162.662 
	439.455,167.597 443.697,167.597 443.697,168.561 438.093,168.561 "/>
<polygon fill="#002C55" points="318.873,98.665 324.593,98.665 324.593,106.659 332.127,106.659 332.127,98.665 337.848,98.665 
	337.848,120.623 332.127,120.623 332.127,111.58 324.593,111.58 324.593,120.623 318.873,120.623 "/>
<rect x="341.724" y="98.664" fill="#002C55" width="5.72" height="21.958"/>
<polygon fill="#002C55" points="351.443,98.665 359.871,98.665 363.653,113.304 363.713,113.304 367.495,98.665 375.926,98.665 
	375.926,120.623 370.542,120.623 370.542,103.956 370.482,103.956 365.867,120.623 361.499,120.623 356.888,103.956 
	356.824,103.956 356.824,120.623 351.443,120.623 "/>
<polygon fill="#002C55" points="379.924,98.665 388.352,98.665 392.134,113.304 392.193,113.304 395.976,98.665 404.402,98.665 
	404.402,120.623 399.022,120.623 399.022,103.956 398.959,103.956 394.348,120.623 389.979,120.623 385.368,103.956 
	385.309,103.956 385.309,120.623 379.924,120.623 "/>
<polygon fill="#002C55" points="408.374,98.665 425.87,98.665 425.87,103.246 414.095,103.246 414.095,107.091 424.858,107.091 
	424.858,111.52 414.095,111.52 414.095,115.702 426.181,115.702 426.181,120.623 408.374,120.623 "/>
<polygon fill="#002C55" points="429.441,98.665 435.161,98.665 435.161,115.702 445.403,115.702 445.403,120.623 429.441,120.623 
	"/>
<path fill="#002C55" d="M444.45,100.854h0.852c0.725,0,1.386-0.038,1.386-0.867c0-0.698-0.602-0.806-1.154-0.806h-1.083V100.854z
	 M443.629,98.517h2.035c1.251,0,1.841,0.497,1.841,1.504c0,0.952-0.602,1.348-1.382,1.434l1.505,2.322h-0.881l-1.431-2.263h-0.866
	v2.263h-0.821V98.517z M445.388,104.991c2.08,0,3.692-1.658,3.692-3.86c0-2.155-1.612-3.816-3.692-3.816
	c-2.105,0-3.719,1.662-3.719,3.816C441.669,103.333,443.282,104.991,445.388,104.991 M445.388,96.653
	c2.457,0,4.511,1.938,4.511,4.477c0,2.587-2.054,4.521-4.511,4.521c-2.468,0-4.536-1.935-4.536-4.521
	C440.852,98.591,442.92,96.653,445.388,96.653"/>
<path fill="#9C9E9F" d="M476.136,79.676c-2.456-2.528-5.929-3.831-10.327-3.868c-8.158-0.071-91.991-0.06-160.277-0.034v1.426
	c68.286-0.022,152.111-0.037,160.263,0.034c3.995,0.034,7.131,1.187,9.312,3.427c3.405,3.495,3.36,8.532,3.356,8.595v65.892v4.283
	v21.155c0,3.592-0.485,7.747-4.077,11.339c-3.704,3.704-10.518,3.954-10.562,3.958c0,0-104.111,0.049-173.879,0.049H278.54
	c-3.588,0-7.747-0.482-11.335-4.074c-3.712-3.707-3.954-10.518-3.958-10.566l-0.004-6.396h-1.426l0.003,6.415
	c0.012,0.302,0.262,7.444,4.373,11.556c3.961,3.957,8.464,4.491,12.347,4.491h11.403h6.467h3.278h4.293
	c68.851,0,159.841-0.052,159.859-0.052c0.303-0.008,7.441-0.262,11.552-4.373c3.966-3.961,4.496-8.464,4.496-12.347v-21.155v-4.283
	V89.271C479.896,89.044,479.959,83.608,476.136,79.676"/>
<rect x="3.621" y="1.867" fill="none" width="476.269" height="195.494"/>
</svg>
