<?xml version="1.0" encoding="utf-8"?>
<!-- Generator: Adobe Illustrator 16.0.4, SVG Export Plug-In . SVG Version: 6.00 Build 0)  -->
<!DOCTYPE svg PUBLIC "-//W3C//DTD SVG 1.1//EN" "http://www.w3.org/Graphics/SVG/1.1/DTD/svg11.dtd">
<svg version="1.1" id="Ebene_1" xmlns="http://www.w3.org/2000/svg" xmlns:xlink="http://www.w3.org/1999/xlink" x="0px" y="0px"
	 width="481.89px" height="198.425px" viewBox="0 0 481.89 198.425" enable-background="new 0 0 481.89 198.425"
	 xml:space="preserve">
<path fill="#1A171B" d="M455.461,100.884c0.554,0,1.049-0.041,1.049-0.702c0-0.535-0.487-0.631-0.941-0.631h-0.883v1.333H455.461z
	 M454.686,103.302h-0.653v-4.305h1.636c1.019,0,1.521,0.376,1.521,1.222c0,0.771-0.484,1.107-1.115,1.188l1.226,1.895h-0.731
	l-1.137-1.868h-0.746V103.302z M455.473,104.258c1.687,0,3.02-1.321,3.02-3.12c0-1.765-1.333-3.097-3.02-3.097
	c-1.706,0-3.039,1.333-3.039,3.097C452.434,102.937,453.767,104.258,455.473,104.258 M451.684,101.138
	c0-2.141,1.735-3.721,3.789-3.721c2.034,0,3.77,1.58,3.77,3.721c0,2.164-1.735,3.74-3.77,3.74
	C453.419,104.878,451.684,103.302,451.684,101.138"/>
<rect x="6.273" y="2.278" fill="none" width="470.971" height="193.319"/>
<path fill="#1A171B" d="M331.073,168.951l-1.27-3.784h-0.022l-1.377,3.784H331.073z M328.046,169.981l-0.901,2.503h-1.195
	l3.233-8.599h1.318l3.109,8.599h-1.267l-0.85-2.503H328.046z"/>
<polygon fill="#1A171B" points="340.38,163.885 341.506,163.885 341.506,172.485 340.199,172.485 335.827,165.54 335.805,165.54 
	335.805,172.485 334.679,172.485 334.679,163.885 336.056,163.885 340.354,170.831 340.38,170.831 "/>
<polygon fill="#1A171B" points="342.584,163.885 349.565,163.885 349.565,164.916 346.652,164.916 346.652,172.485 345.493,172.485 
	345.493,164.916 342.584,164.916 "/>
<path fill="#1A171B" d="M351.949,167.801h2.695c0.85,0,1.746-0.214,1.746-1.483c0-1.329-0.967-1.437-1.543-1.437h-2.898V167.801z
	 M351.949,172.484h-1.163v-8.6h3.977c1.414,0,2.824,0.491,2.824,2.312c0,1.27-0.646,1.739-1.196,2.061
	c0.491,0.202,0.982,0.421,1.03,1.616l0.074,1.559c0.011,0.477,0.07,0.657,0.428,0.86v0.192h-1.425
	c-0.17-0.524-0.203-1.832-0.203-2.156c0-0.706-0.145-1.533-1.532-1.533h-2.813V172.484z"/>
<rect x="6.273" y="2.278" fill="none" width="470.971" height="193.319"/>
<rect x="359.472" y="163.889" fill="#1A171B" width="1.159" height="8.595"/>
<polygon fill="#1A171B" points="369.086,172.484 362.739,172.484 362.739,163.884 369.005,163.884 369.005,164.915 363.902,164.915 
	363.902,167.55 368.605,167.55 368.605,168.581 363.902,168.581 363.902,171.454 369.086,171.454 "/>
<path fill="#1A171B" d="M371.745,171.488h2.481c1.207,0,1.82-0.605,1.82-1.565c0-1.211-1.067-1.451-2.012-1.451h-2.29V171.488z
	 M371.745,167.526h2.094c1.115,0,1.798-0.336,1.798-1.389c0-0.805-0.487-1.259-1.783-1.259h-2.108V167.526z M370.586,163.885h3.785
	c1.602,0,2.429,0.993,2.429,2.167c0,0.565-0.203,1.355-1.151,1.795c0.564,0.229,1.558,0.624,1.558,2.098
	c0,1.377-1.019,2.54-2.924,2.54h-3.696V163.885z"/>
<path fill="#1A171B" d="M383.784,166.401c-0.062-1.329-1.163-1.75-2.134-1.75c-0.728,0-1.965,0.202-1.965,1.51
	c0,0.731,0.518,0.971,1.02,1.089l2.455,0.565c1.115,0.262,1.953,0.931,1.953,2.296c0,2.038-1.894,2.6-3.367,2.6
	c-1.591,0-2.215-0.479-2.596-0.827c-0.73-0.657-0.875-1.373-0.875-2.179h1.09c0,1.559,1.266,2.013,2.37,2.013
	c0.838,0,2.252-0.214,2.252-1.447c0-0.901-0.421-1.188-1.831-1.524l-1.762-0.406c-0.561-0.13-1.835-0.524-1.835-2.023
	c0-1.341,0.875-2.658,2.961-2.658c3.002,0,3.305,1.798,3.353,2.743H383.784z"/>
<rect x="6.273" y="2.278" fill="none" width="470.971" height="193.319"/>
<polygon fill="#1A171B" points="385.846,163.885 392.827,163.885 392.827,164.916 389.914,164.916 389.914,172.485 388.755,172.485 
	388.755,164.916 385.846,164.916 "/>
<polygon fill="#1A171B" points="400.371,172.484 394.023,172.484 394.023,163.884 400.286,163.884 400.286,164.915 395.187,164.915 
	395.187,167.55 399.891,167.55 399.891,168.581 395.187,168.581 395.187,171.454 400.371,171.454 "/>
<path fill="#1A171B" d="M407.93,166.472c-0.324-1.51-1.58-1.783-2.407-1.783c-1.558,0-2.816,1.148-2.816,3.412
	c0,2.023,0.72,3.581,2.854,3.581c0.753,0,2.061-0.358,2.452-2.359h1.126c-0.477,3.245-3.113,3.39-3.759,3.39
	c-1.953,0-3.869-1.271-3.869-4.574c0-2.647,1.51-4.479,4.013-4.479c2.216,0,3.364,1.378,3.534,2.813H407.93z"/>
<rect x="6.273" y="2.278" fill="none" width="470.971" height="193.319"/>
<polygon fill="#1A171B" points="416.205,163.885 417.368,163.885 417.368,172.485 416.205,172.485 416.205,168.471 411.716,168.471 
	411.716,172.485 410.553,172.485 410.553,163.885 411.716,163.885 411.716,167.441 416.205,167.441 "/>
<polygon fill="#1A171B" points="424.888,163.885 426.014,163.885 426.014,172.485 424.707,172.485 420.336,165.54 420.313,165.54 
	420.313,172.485 419.188,172.485 419.188,163.885 420.564,163.885 424.862,170.831 424.888,170.831 "/>
<rect x="428.013" y="163.889" fill="#1A171B" width="1.163" height="8.595"/>
<polygon fill="#1A171B" points="432.326,172.484 431.163,172.484 431.163,163.884 432.326,163.884 432.326,168.053 436.495,163.884 
	438.097,163.884 434.516,167.359 438.193,172.484 436.687,172.484 433.678,168.171 432.326,169.467 "/>
<polygon fill="#CC0422" points="348.468,134.128 368.498,97.609 382.429,97.609 362.49,134.128 "/>
<polygon fill="#CC0422" points="347.683,135.99 361.443,135.99 350.208,156.628 336.101,156.628 "/>
<polygon fill="#CC0422" points="364.316,135.99 378.166,135.99 366.931,156.628 352.996,156.628 "/>
<polygon fill="#CC0422" points="365.451,134.128 379.297,134.128 391.488,111.865 396.713,122.997 390.443,122.926 384.001,134.128 
	417.268,134.128 399.153,97.609 385.308,97.609 "/>
<polygon fill="#CC0422" points="413.697,97.61 449.577,97.61 449.577,108.993 438.601,108.993 438.601,134.129 424.408,134.129 
	424.408,108.908 413.697,108.908 "/>
<polygon fill="#CC0422" points="313.35,97.61 327.487,97.61 327.487,122.853 346.28,122.853 346.28,134.129 313.35,134.129 "/>
<path fill="#9C9E9F" d="M46.726,122.513c-0.643,0.133-1.835,0.55-3.165,0.55c-2.706,0-4.216-1.192-4.216-4.726v-17.383h-3.349v-2.29
	h3.349V92.06h2.747v6.605h4.453v2.29h-4.453v16.286c0,2.337,0.092,3.345,2.389,3.345c0.731,0,1.514-0.14,2.245-0.321V122.513z"/>
<path fill="#9C9E9F" d="M68.327,108.891c0-4.634-2.569-8.393-7.521-8.393c-4.862,0-7.432,3.899-7.982,8.393H68.327z M52.823,111.184
	c-0.044,5.136,2.71,9.4,7.982,9.4c3.574,0,6.376-1.972,7.196-5.461h3.076c-1.377,4.501-4.22,7.938-10.272,7.938
	c-7.617,0-10.917-5.409-10.917-12.428c0-6.927,4.128-12.613,10.917-12.613c6.51,0,10.501,4.634,10.453,13.163H52.823z"/>
<path fill="#9C9E9F" d="M93.456,106.139c-0.963-3.529-3.396-5.642-7.067-5.642c-5.638,0-7.979,5.137-7.979,10.091
	c0,4.996,2.293,9.995,7.979,9.995c4.084,0,6.65-2.43,7.292-6.373h2.939c-0.964,5.272-4.269,8.851-10.231,8.851
	c-7.565,0-10.914-5.457-10.914-12.473c0-6.604,3.807-12.568,10.914-12.568c5.461,0,9.035,2.614,9.862,8.119H93.456z"/>
<path fill="#9C9E9F" d="M102.118,122.421V89.399h2.75v12.564c2.204-2.333,4.357-3.943,7.658-3.943c2.891,0,5.557,0.919,7.248,3.394
	c1.145,1.698,1.192,3.485,1.192,5.461v15.547h-2.75v-15.503c0-4.265-1.743-6.421-6.148-6.421c-3.393,0-5.73,2.2-6.602,4.634
	c-0.55,1.514-0.598,2.843-0.598,4.493v12.797H102.118z"/>
<path fill="#9C9E9F" d="M130.366,122.421h-2.751V98.663h2.751v3.301c2.2-2.333,4.356-3.943,7.657-3.943
	c2.891,0,5.549,0.919,7.248,3.394c1.145,1.698,1.192,3.485,1.192,5.461v15.547h-2.754v-15.503c0-4.265-1.739-6.421-6.144-6.421
	c-3.393,0-5.734,2.2-6.605,4.634c-0.55,1.514-0.594,2.843-0.594,4.493V122.421z"/>
<path fill="#9C9E9F" d="M162.558,100.5c-5.782,0-8.075,4.906-8.075,10.042c0,5.915,2.802,10.043,8.075,10.043
	c5.778,0,8.071-4.951,8.071-10.043C170.581,104.948,168.384,100.5,162.558,100.5 M151.547,110.542c0-6.926,3.674-12.52,11.01-12.52
	c7.429,0,11.002,5.549,11.002,12.52c0,7.521-4.353,12.521-11.002,12.521C156.506,122.969,151.547,118.842,151.547,110.542"/>
<rect x="6.273" y="2.278" fill="none" width="470.971" height="193.319"/>
<rect x="179.016" y="89.399" fill="#9C9E9F" width="2.75" height="33.022"/>
<path fill="#9C9E9F" d="M198.229,100.5c-5.774,0-8.071,4.906-8.071,10.042c0,5.915,2.803,10.043,8.071,10.043
	c5.782,0,8.075-4.951,8.075-10.043C206.256,104.948,204.055,100.5,198.229,100.5 M187.226,110.542c0-6.926,3.667-12.52,11.003-12.52
	c7.432,0,11.01,5.549,11.01,12.52c0,7.521-4.357,12.521-11.01,12.521C192.178,122.969,187.226,118.842,187.226,110.542"/>
<path fill="#9C9E9F" d="M224.599,100.499c-4.634,0-8.071,3.349-8.116,9.309c-0.232,5.966,2.426,10.777,8.116,10.777
	c4.999,0,8.027-4.582,8.027-9.954C232.626,104.9,229.783,100.499,224.599,100.499 M232.626,98.664h2.747v21.463
	c0,6.376-2.108,12.018-11.143,12.018c-6.971,0-9.858-3.991-10.043-6.834h2.939c0.823,3.578,3.847,4.357,7.104,4.357
	c7.524,0,8.533-5.594,8.396-11.055c-1.747,2.887-5.136,4.449-8.485,4.449c-7.248,0-10.6-5.915-10.6-12.564
	c0-7.02,3.076-12.477,10.737-12.477c3.027,0,6.653,1.695,8.256,4.818h0.092V98.664z"/>
<rect x="6.273" y="2.278" fill="none" width="470.971" height="193.319"/>
<path fill="#9C9E9F" d="M242.71,122.421h2.754V98.663h-2.754V122.421z M242.573,93.479h3.027v-4.08h-3.027V93.479z"/>
<path fill="#9C9E9F" d="M269.672,108.891c0-4.634-2.566-8.393-7.518-8.393c-4.866,0-7.429,3.899-7.979,8.393H269.672z
	 M254.176,111.184c-0.052,5.136,2.702,9.4,7.979,9.4c3.578,0,6.373-1.972,7.2-5.461h3.071c-1.373,4.501-4.216,7.938-10.271,7.938
	c-7.613,0-10.918-5.409-10.918-12.428c0-6.927,4.132-12.613,10.918-12.613c6.51,0,10.501,4.634,10.456,13.163H254.176z"/>
<path fill="#9C9E9F" d="M279.575,114.992c0.875,4.083,2.983,5.593,7.107,5.593c3.995,0,5.874-2.107,5.874-4.404
	c0-6.879-15.227-2.016-15.227-11.372c0-3.943,3.075-6.786,8.345-6.786c5.136,0,8.484,2.108,9.175,7.477h-2.799
	c-0.502-3.67-2.979-4.999-6.421-4.999c-3.485,0-5.364,1.65-5.364,4.08c0,6.469,15.227,2.433,15.227,11.557
	c0,4.541-4.084,6.926-9.678,6.926c-5.597,0-8.806-3.577-9.034-8.07H279.575z"/>
<path fill="#CFD1D2" d="M296.956,153.367h2.939v-2.883h-2.939V153.367z M284.13,148.929c-0.06,3.297,2.731,4.756,5.689,4.756
	c3.651,0,5.564-1.836,5.564-4.287c0-3.017-2.98-3.67-3.974-3.896c-3.349-0.842-3.987-0.993-3.987-2.023
	c0-1.122,1.086-1.517,2.023-1.517c1.422,0,2.548,0.432,2.64,2.022h2.847c0-3.09-2.565-4.305-5.357-4.305
	c-2.414,0-4.999,1.288-4.999,4.043c0,2.47,2.005,3.315,3.991,3.799c1.946,0.543,3.97,0.75,3.97,2.212
	c0,1.366-1.573,1.665-2.604,1.665c-1.572,0-2.961-0.69-2.961-2.47H284.13z M271.975,148.929c-0.055,3.297,2.736,4.756,5.693,4.756
	c3.652,0,5.561-1.836,5.561-4.287c0-3.017-2.976-3.67-3.969-3.896c-3.353-0.842-3.987-0.993-3.987-2.023
	c0-1.122,1.085-1.517,2.02-1.517c1.425,0,2.547,0.432,2.644,2.022h2.843c0-3.09-2.562-4.305-5.354-4.305
	c-2.415,0-4.999,1.288-4.999,4.043c0,2.47,2.004,3.315,3.987,3.799c1.945,0.543,3.969,0.75,3.969,2.212
	c0,1.366-1.572,1.665-2.603,1.665c-1.573,0-2.958-0.69-2.958-2.47H271.975z M260.685,153.367h10.149v-2.474h-7.211v-3.274h6.479
	v-2.286h-6.479v-2.864h7.06v-2.471h-9.998V153.367z M258.568,144.491c-0.354-3.09-2.847-4.811-5.767-4.811
	c-4.121,0-6.572,3.087-6.572,7.056c0,3.858,2.451,6.949,6.572,6.949c3.297,0,5.582-2.116,5.881-5.469h-2.847
	c-0.225,1.78-1.236,2.998-3.034,2.998c-2.641,0-3.634-2.248-3.634-4.479c0-2.337,0.993-4.586,3.634-4.586
	c1.443,0,2.714,1.012,2.92,2.341H258.568z M244.693,144.491c-0.354-3.09-2.847-4.811-5.767-4.811c-4.121,0-6.572,3.087-6.572,7.056
	c0,3.858,2.452,6.949,6.572,6.949c3.297,0,5.579-2.116,5.881-5.469h-2.847c-0.225,1.78-1.237,2.998-3.035,2.998
	c-2.64,0-3.633-2.248-3.633-4.479c0-2.337,0.993-4.586,3.633-4.586c1.443,0,2.717,1.012,2.92,2.341H244.693z M230.408,139.998
	h-2.939v8.312c0,2.005-0.675,2.905-2.773,2.905c-2.377,0-2.754-1.443-2.754-2.905v-8.312h-2.939v8.312
	c0,3.655,2.079,5.376,5.693,5.376c3.574,0,5.712-1.762,5.712-5.376V139.998z M206.066,148.929c-0.056,3.297,2.732,4.756,5.693,4.756
	c3.651,0,5.56-1.836,5.56-4.287c0-3.017-2.976-3.67-3.969-3.896c-3.353-0.842-3.991-0.993-3.991-2.023
	c0-1.122,1.089-1.517,2.023-1.517c1.425,0,2.548,0.432,2.64,2.022h2.847c0-3.09-2.566-4.305-5.354-4.305c-2.418,0-5,1.288-5,4.043
	c0,2.47,2.001,3.315,3.988,3.799c1.946,0.543,3.969,0.75,3.969,2.212c0,1.366-1.573,1.665-2.603,1.665
	c-1.573,0-2.957-0.69-2.957-2.47H206.066z M188.185,153.367h2.939v-5.224h2.939c1.48,0,2.023,0.616,2.23,2.022
	c0.148,1.067,0.129,2.356,0.465,3.201h2.942c-0.542-0.73-0.506-2.322-0.561-3.164c-0.096-1.366-0.506-2.735-1.95-3.127v-0.037
	c1.499-0.602,2.116-1.779,2.116-3.353c0-2.023-1.514-3.688-3.914-3.688h-7.207V153.367z M191.124,142.284h3.219
	c1.333,0,2.023,0.557,2.023,1.85c0,1.351-0.69,1.912-2.023,1.912h-3.219V142.284z M173.035,146.736c0,3.858,2.452,6.949,6.572,6.949
	s6.572-3.091,6.572-6.949c0-3.969-2.452-7.056-6.572-7.056S173.035,142.767,173.035,146.736 M175.975,146.736
	c0-2.337,0.993-4.586,3.633-4.586c2.64,0,3.633,2.249,3.633,4.586c0,2.23-0.993,4.479-3.633,4.479
	C176.968,151.214,175.975,148.966,175.975,146.736 M162.513,153.367h2.939v-5.523h5.601v-2.285h-5.601v-3.09h6.461v-2.471h-9.4
	V153.367z M145.174,153.367h10.15v-2.474h-7.211v-3.274h6.479v-2.286h-6.479v-2.864h7.059v-2.471h-9.998V153.367z M144.03,139.998
	h-3.032l-3.016,9.4h-0.037l-2.976-9.4h-3.031l4.342,13.369h3.315L144.03,139.998z M127.854,153.367h2.939v-13.369h-2.939V153.367z
	 M114.333,153.367h2.942v-5.224h2.939c1.477,0,2.02,0.616,2.227,2.022c0.151,1.067,0.133,2.356,0.469,3.201h2.939
	c-0.542-0.73-0.506-2.322-0.561-3.164c-0.092-1.366-0.506-2.735-1.946-3.127v-0.037c1.495-0.602,2.116-1.779,2.116-3.353
	c0-2.023-1.518-3.688-3.914-3.688h-7.21V153.367z M117.276,142.284h3.22c1.329,0,2.023,0.557,2.023,1.85
	c0,1.351-0.694,1.912-2.023,1.912h-3.22V142.284z M100.462,153.367h5.763c4.084,0,6.07-2.883,6.07-6.76
	c0-4.42-2.603-6.609-6.07-6.609h-5.763V153.367z M103.401,142.468h2.093c2.906,0,3.858,1.724,3.858,4.419
	c0,2.958-1.628,4.006-3.334,4.006h-2.618V142.468z M81.735,153.367h2.939v-5.224h2.939c1.481,0,2.023,0.616,2.23,2.022
	c0.147,1.067,0.129,2.356,0.469,3.201h2.939c-0.543-0.73-0.506-2.322-0.561-3.164c-0.096-1.366-0.506-2.735-1.95-3.127v-0.037
	c1.499-0.602,2.116-1.779,2.116-3.353c0-2.023-1.514-3.688-3.914-3.688h-7.208V153.367z M84.674,142.284h3.224
	c1.329,0,2.02,0.557,2.02,1.85c0,1.351-0.69,1.912-2.02,1.912h-3.224V142.284z M79.206,139.998h-2.939v8.312
	c0,2.005-0.672,2.905-2.77,2.905c-2.381,0-2.754-1.443-2.754-2.905v-8.312h-2.939v8.312c0,3.655,2.079,5.376,5.693,5.376
	c3.574,0,5.708-1.762,5.708-5.376V139.998z M52.711,146.736c0,3.858,2.455,6.949,6.572,6.949c4.121,0,6.572-3.091,6.572-6.949
	c0-3.969-2.452-7.056-6.572-7.056C55.166,139.68,52.711,142.767,52.711,146.736 M55.653,146.736c0-2.337,0.99-4.586,3.629-4.586
	c2.644,0,3.633,2.249,3.633,4.586c0,2.23-0.99,4.479-3.633,4.479C56.643,151.214,55.653,148.966,55.653,146.736 M44.267,153.367
	h2.939v-5.132l4.962-8.237h-3.275l-3.109,5.28l-3.127-5.28h-3.315l4.925,8.164V153.367z"/>
<polygon fill="#002C55" points="35.258,31.62 47.065,31.62 47.065,48.124 62.617,48.124 62.617,31.62 74.421,31.62 74.421,76.938 
	62.617,76.938 62.617,58.277 47.065,58.277 47.065,76.938 35.258,76.938 "/>
<rect x="82.329" y="31.62" fill="#002C55" width="11.807" height="45.317"/>
<polygon fill="#002C55" points="102.266,31.776 119.538,31.776 127.292,61.783 127.417,61.783 135.17,31.776 152.439,31.776 
	152.439,76.784 141.414,76.784 141.414,42.617 141.285,42.617 131.829,76.784 122.879,76.784 113.42,42.617 113.298,42.617 
	113.298,76.784 102.266,76.784 "/>
<polygon fill="#002C55" points="160.787,31.777 178.059,31.777 185.812,61.784 185.934,61.784 193.691,31.777 210.963,31.777 
	210.963,76.785 199.935,76.785 199.935,42.614 199.806,42.614 190.35,76.785 181.4,76.785 171.941,42.614 171.819,42.614 
	171.819,76.785 160.787,76.785 "/>
<polygon fill="#002C55" points="219.027,31.776 254.89,31.776 254.89,41.169 230.754,41.169 230.754,49.052 252.811,49.052 
	252.811,58.12 230.754,58.12 230.754,66.693 255.518,66.693 255.518,76.784 219.027,76.784 "/>
<polyline fill="#002C55" points="262.205,76.784 262.205,31.776 274.189,31.776 274.189,66.697 295.435,66.697 295.435,76.784 "/>
<path fill="#002C55" d="M293.281,36.537h1.758c1.484,0,2.847-0.07,2.847-1.776c0-1.437-1.241-1.662-2.374-1.662h-2.23V36.537z
	 M291.602,31.745h4.18c2.573,0,3.784,1.012,3.784,3.087c0,1.957-1.236,2.772-2.843,2.946l3.094,4.774h-1.809l-2.943-4.648h-1.783
	v4.648h-1.68V31.745z M295.213,45.048c4.279,0,7.591-3.412,7.591-7.938c0-4.427-3.312-7.842-7.591-7.842
	c-4.331,0-7.644,3.416-7.644,7.842C287.569,41.636,290.882,45.048,295.213,45.048 M295.213,27.909c5.047,0,9.274,3.98,9.274,9.201
	c0,5.317-4.228,9.297-9.274,9.297c-5.073,0-9.327-3.98-9.327-9.297C285.886,31.889,290.14,27.909,295.213,27.909"/>
<path fill="#9C9E9F" d="M473.533,79.222c-2.43-2.5-5.863-3.788-10.213-3.825c-8.067-0.07-90.968-0.059-158.494-0.033v1.411
	c67.526-0.022,150.419-0.037,158.479,0.033c3.95,0.033,7.052,1.174,9.208,3.39c3.367,3.456,3.323,8.437,3.319,8.499v65.16v4.234
	v20.92c0,3.552-0.479,7.661-4.032,11.214c-3.662,3.662-10.4,3.909-10.445,3.913c0,0-102.952,0.048-171.944,0.048h-11.276
	c-3.548,0-7.661-0.476-11.209-4.027c-3.67-3.667-3.91-10.401-3.914-10.449l-0.004-6.325h-1.41l0.004,6.344
	c0.011,0.299,0.258,7.362,4.323,11.427c3.918,3.914,8.37,4.442,12.21,4.442h11.276h6.395h3.242h4.246
	c68.084,0,158.062-0.052,158.08-0.052c0.3-0.008,7.359-0.259,11.424-4.324c3.921-3.917,4.445-8.37,4.445-12.21v-20.92v-4.234V88.71
	C477.251,88.485,477.313,83.11,473.533,79.222"/>
<path fill="#FEDE45" d="M25.475,75.495h-6.144c-1.178,0-11.523-0.343-11.626-12.302c-0.011-1.244-0.022-4.283-0.029-8.739
	L7.66,18.565c0-3.485,0.469-7.521,3.955-11.01c3.6-3.6,10.216-3.84,10.264-3.84c0,0,95.45-0.051,163.006-0.051
	c39.218,0,61.087,0.018,64.986,0.051c3.88,0.034,6.923,1.152,9.042,3.327c3.305,3.394,3.26,8.286,3.26,8.348v6.55h1.385v-6.535
	c0.004-0.226,0.066-5.501-3.644-9.319c-2.386-2.455-5.76-3.718-10.032-3.759c-3.902-0.033-25.775-0.048-64.997-0.048
	c-67.56,0-163.01,0.048-163.028,0.048c-0.292,0.011-7.229,0.255-11.221,4.25c-3.844,3.843-4.364,8.219-4.364,11.988v35.892
	l0.019,0.775c0.007,4.04,0.019,6.801,0.026,7.972c0.118,13.51,12.465,13.676,13.063,13.676l6.096,0.026V75.495z"/>
</svg>
