<?xml version="1.0" encoding="utf-8"?>
<!-- Generator: Adobe Illustrator 23.0.4, SVG Export Plug-In . SVG Version: 6.00 Build 0)  -->
<svg version="1.1" id="Ebene_1" xmlns="http://www.w3.org/2000/svg" xmlns:xlink="http://www.w3.org/1999/xlink" x="0px" y="0px"
	 viewBox="0 0 50 50" style="enable-background:new 0 0 50 50;" xml:space="preserve">
<style type="text/css">
	.st0{fill:#FFFFFF;}
	.st1{fill:#002B55;}
</style>
<g>
	<circle class="st0" cx="25" cy="25" r="25"/>
</g>
<g>
	<path class="st1" d="M32.4,23.5v13.1c0,1.1-0.9,1.9-1.9,1.9c-1.1,0-1.9-0.9-1.9-1.9V36c-0.2,0-0.3,0-0.5,0h-6.1
		c-2,0-3.5-1.6-3.5-3.5v-0.8h-1.5c-0.7,0-0.9-0.3-1.1-0.9c-3.4-0.7-6-4.4-3.6-7.8c1-1.4,3.1-3,2.4-5c-0.7-2-3-3.1-4.3-4.7
		c-0.9-1,0.6-2.5,1.5-1.5c1.3,1.6,3.2,2.6,4.3,4.4c1,1.6,1,3.7-0.1,5.3c-0.9,1.4-2.9,2.8-2.6,4.6c0.2,1.3,1.2,2.2,2.4,2.5l0,0
		c0.1-0.5,0.4-0.7,1-0.7h1.5v-0.4c0-2,1.6-3.5,3.5-3.5H28c0.2,0,0.4,0,0.5,0v-0.6c0-1.1,0.9-1.9,1.9-1.9
		C31.5,21.5,32.4,22.4,32.4,23.5z M39.9,26.4c0-0.8-0.6-1.4-1.4-1.4H33v2.8h5.5C39.3,27.8,39.9,27.1,39.9,26.4z M38.6,32.2H33v2.8
		h5.5c0.8,0,1.4-0.6,1.4-1.4C39.9,32.8,39.3,32.2,38.6,32.2z"/>
</g>
</svg>
