<?xml version="1.0" encoding="utf-8"?>
<!-- Generator: Adobe Illustrator 23.0.4, SVG Export Plug-In . SVG Version: 6.00 Build 0)  -->
<svg version="1.1" id="Ebene_1" xmlns="http://www.w3.org/2000/svg" xmlns:xlink="http://www.w3.org/1999/xlink" x="0px" y="0px"
	 viewBox="0 0 50 50" style="enable-background:new 0 0 50 50;" xml:space="preserve">
<style type="text/css">
	.st0{fill:#FFFFFF;}
	.st1{fill:#002B55;}
</style>
<g>
	<circle class="st0" cx="25" cy="25" r="25"/>
</g>
<g>
	<g>
		<path class="st1" d="M23.2,21.7l-12,12c-0.4,0.4-0.7,1-0.7,1.6c0,0.6,0.2,1.2,0.7,1.6l1.9,1.9c0.5,0.4,1,0.7,1.6,0.7
			c0.6,0,1.2-0.2,1.6-0.7l12-12c-1.2-0.5-2.2-1.1-3.1-2C24.3,23.9,23.7,22.9,23.2,21.7z M16.6,35c-0.2,0.2-0.5,0.3-0.8,0.3
			c-0.3,0-0.6-0.1-0.8-0.3c-0.2-0.2-0.3-0.5-0.3-0.8c0-0.3,0.1-0.6,0.3-0.8c0.2-0.2,0.5-0.3,0.8-0.3c0.3,0,0.6,0.1,0.8,0.3
			c0.2,0.2,0.3,0.5,0.3,0.8C16.9,34.5,16.8,34.8,16.6,35z"/>
		<path class="st1" d="M39.3,18.7c-0.1-0.1-0.2-0.2-0.4-0.2c-0.1,0-0.5,0.2-1.2,0.6c-0.7,0.4-1.5,0.9-2.4,1.4
			c-0.9,0.5-1.3,0.8-1.4,0.9l-3.4-1.9v-4l5.2-3c0.2-0.1,0.3-0.3,0.3-0.5c0-0.2-0.1-0.4-0.3-0.5c-0.5-0.4-1.2-0.6-1.9-0.8
			c-0.7-0.2-1.5-0.3-2.1-0.3c-2.2,0-4,0.8-5.6,2.3c-1.5,1.5-2.3,3.4-2.3,5.6c0,2.2,0.8,4,2.3,5.6c1.5,1.5,3.4,2.3,5.6,2.3
			c1.7,0,3.2-0.5,4.6-1.5c1.4-1,2.4-2.3,2.9-3.8c0.3-0.8,0.4-1.4,0.4-1.9C39.5,19,39.4,18.8,39.3,18.7z"/>
	</g>
</g>
</svg>
