<?xml version="1.0" encoding="utf-8"?>
<!-- Generator: Adobe Illustrator 23.0.4, SVG Export Plug-In . SVG Version: 6.00 Build 0)  -->
<svg version="1.1" id="Ebene_1" xmlns="http://www.w3.org/2000/svg" xmlns:xlink="http://www.w3.org/1999/xlink" x="0px" y="0px"
	 viewBox="0 0 50 50" style="enable-background:new 0 0 50 50;" xml:space="preserve">
<style type="text/css">
	.st0{fill:#FFFFFF;}
	.st1{fill:#002B55;}
</style>
<g>
	<circle class="st0" cx="25" cy="25" r="25"/>
</g>
<g>
	<circle class="st1" cx="23.8" cy="33.6" r="1.9"/>
	<circle class="st1" cx="14.9" cy="33.6" r="1.9"/>
	<g>
		<path class="st1" d="M39.3,33.7h-7.6c-0.5,0-0.8-0.4-0.8-0.8V15.3c0-0.5,0.4-0.8,0.8-0.8c0.5,0,0.8,0.4,0.8,0.8v16.8h6.8
			c0.5,0,0.8,0.4,0.8,0.8C40.1,33.4,39.7,33.7,39.3,33.7z"/>
	</g>
	<path class="st1" d="M28.6,26.7c-1.7-2.8-6.2-10.2-6.2-10.3c-0.2-0.4-0.6-0.6-1.1-0.6h-7.2c-0.7,0-1.3,0.6-1.3,1.3v7h-2
		c-0.5,0-0.9,0.4-0.9,0.9V33c0,0.5,0.4,0.9,0.9,0.9h0.9c0.1,0,0.2-0.1,0.2-0.2c0-1.7,1.3-3,3-3s3,1.3,3,3c0,0.1,0,0.1,0.1,0.2
		c0,0,0.1,0.1,0.2,0.1h2.4c0.1,0,0.2-0.1,0.2-0.2c0-1.7,1.3-3,3-3c1.7,0,3,1.3,3,3c0,0.1,0.1,0.2,0.2,0.2h0.7c0.6,0,1.1-0.5,1.1-1.1
		v-5.4C28.8,27,28.7,26.8,28.6,26.7z M21.4,26.7v-1.2c0-0.2-0.2-0.4-0.4-0.4H19v-3.5c0-0.2-0.2-0.4-0.4-0.4h-1.2
		c-0.2,0-0.4,0.2-0.4,0.4v5h-1.7l0-8.3h5.2l5,8.3H21.4L21.4,26.7z"/>
	<g>
		<path class="st1" d="M40.1,30.4c0,0.2-0.2,0.4-0.4,0.4h-5.6c-0.2,0-0.4-0.2-0.4-0.4v-5.6c0-0.2,0.2-0.4,0.4-0.4h5.6
			c0.2,0,0.4,0.2,0.4,0.4V30.4L40.1,30.4z"/>
		<path class="st1" d="M40.1,22.5c0,0.2-0.2,0.4-0.4,0.4h-5.6c-0.2,0-0.4-0.2-0.4-0.4v-5.6c0-0.2,0.2-0.4,0.4-0.4h5.6
			c0.2,0,0.4,0.2,0.4,0.4V22.5L40.1,22.5z"/>
	</g>
</g>
</svg>
