<?xml version="1.0" encoding="utf-8"?>
<!-- Generator: Adobe Illustrator 23.0.4, SVG Export Plug-In . SVG Version: 6.00 Build 0)  -->
<svg version="1.1" id="Ebene_1" xmlns="http://www.w3.org/2000/svg" xmlns:xlink="http://www.w3.org/1999/xlink" x="0px" y="0px"
	 viewBox="0 0 50 50" style="enable-background:new 0 0 50 50;" xml:space="preserve">
<style type="text/css">
	.st0{fill:#FFFFFF;}
	.st1{fill:#002B55;}
</style>
<g>
	<circle class="st0" cx="25" cy="25" r="25"/>
</g>
<g>
	<g>
		<g>
			<path class="st1" d="M20.7,12c0.1,0.3,0.3,0.5,0.4,0.8c0.1,0.2,0.3,0.4,0.5,0.6c0.2,0.2,0.4,0.4,0.7,0.6c0.2,0.1,0.5,0.3,0.8,0.4
				c0.3,0.1,0.5,0.2,0.9,0.3c0.3,0.1,0.6,0.1,0.9,0.1s0.6,0,0.9-0.1c0.3-0.1,0.5-0.1,0.8-0.3h0.1c0.3-0.1,0.5-0.3,0.8-0.5
				c0.2-0.1,0.4-0.3,0.6-0.5l0.1-0.1c0.2-0.2,0.3-0.4,0.5-0.6c0.1-0.2,0.3-0.4,0.3-0.7c0-0.1,0-0.1,0.1-0.1c0.1-0.3,0.2-0.6,0.3-0.9
				c0.1-0.3,0.1-0.6,0.1-0.9c0-0.3,0-0.6-0.1-0.9c-0.1-0.3-0.1-0.5-0.3-0.9c-0.2-0.5-0.5-0.9-0.8-1.2C28.2,7,28.2,7,28.1,6.9
				c-0.2-0.2-0.4-0.3-0.7-0.5c-0.3-0.1-0.5-0.3-0.8-0.4c-0.3-0.1-0.5-0.2-0.8-0.3c-0.3-0.1-0.6-0.1-0.9-0.1s-0.6,0-0.9,0.1
				c-0.3,0.1-0.5,0.1-0.8,0.3h-0.1c-0.3,0.1-0.5,0.3-0.8,0.4c-0.3,0.2-0.5,0.3-0.7,0.5c-0.2,0.2-0.4,0.4-0.5,0.6
				C21,7.7,20.9,8,20.7,8.3c-0.1,0.3-0.2,0.5-0.3,0.8c-0.1,0.3-0.1,0.6-0.1,0.9c0,0.3,0,0.6,0.1,0.9C20.5,11.4,20.7,11.7,20.7,12z"
				/>
			<path class="st1" d="M30.3,37.1h-1.6V20.3c0-1-0.8-1.8-1.8-1.8h-7.2c-1,0-1.8,0.8-1.8,1.8V24c0,1,0.8,1.8,1.8,1.8h1.4v11.4h-1.4
				c-1,0-1.8,0.8-1.8,1.8v3.7c0,1,0.8,1.8,1.8,1.8h10.6c1,0,1.8-0.8,1.8-1.8v-3.7C32.1,37.9,31.2,37.1,30.3,37.1z"/>
		</g>
	</g>
</g>
</svg>
