<?xml version="1.0" encoding="utf-8"?>
<!-- Generator: Adobe Illustrator 16.0.4, SVG Export Plug-In . SVG Version: 6.00 Build 0)  -->
<!DOCTYPE svg PUBLIC "-//W3C//DTD SVG 1.1//EN" "http://www.w3.org/Graphics/SVG/1.1/DTD/svg11.dtd">
<svg version="1.1" id="Ebene_1" xmlns="http://www.w3.org/2000/svg" xmlns:xlink="http://www.w3.org/1999/xlink" x="0px" y="0px"
	 width="303.308px" height="155.906px" viewBox="0 0 303.308 155.906" enable-background="new 0 0 303.308 155.906"
	 xml:space="preserve">
<path fill="#FEDE45" d="M22.174,75.471h-6.13c-1.175,0-11.499-0.343-11.602-12.276c-0.011-1.242-0.022-4.274-0.03-8.721
	L4.397,18.664c0-3.478,0.468-7.505,3.946-10.986c3.592-3.592,10.194-3.832,10.242-3.832c0,0,95.245-0.052,162.656-0.052
	c39.135,0,60.956,0.019,64.847,0.052c3.872,0.033,6.908,1.149,9.023,3.319c3.297,3.386,3.253,8.268,3.253,8.331v6.536h1.382V15.51
	c0.003-0.225,0.065-5.49-3.637-9.299c-2.38-2.45-5.747-3.71-10.01-3.75c-3.895-0.033-25.721-0.048-64.858-0.048
	c-67.414,0-162.659,0.048-162.678,0.048c-0.291,0.011-7.214,0.254-11.196,4.24c-3.835,3.835-4.355,8.202-4.355,11.963v35.815
	l0.019,0.773h0.003c0.007,4.031,0.015,6.787,0.022,7.955c0.118,13.48,12.438,13.646,13.035,13.646l6.083,0.025V75.471z"/>
<path fill="#9C9E9F" d="M43.379,122.388c-0.641,0.133-1.831,0.549-3.157,0.549c-2.701,0-4.208-1.189-4.208-4.716v-17.346h-3.341
	v-2.284h3.341V92h2.741v6.591h4.443v2.284h-4.443v16.252c0,2.332,0.092,3.338,2.384,3.338c0.729,0,1.51-0.141,2.24-0.32V122.388z"/>
<path fill="#9C9E9F" d="M64.935,108.795c0-4.623-2.564-8.374-7.505-8.374c-4.852,0-7.417,3.891-7.965,8.374H64.935z M49.464,111.083
	c-0.044,5.125,2.704,9.38,7.965,9.38c3.566,0,6.363-1.967,7.181-5.448h3.069c-1.374,4.49-4.211,7.921-10.25,7.921
	c-7.601,0-10.895-5.397-10.895-12.401c0-6.912,4.119-12.585,10.895-12.585c6.496,0,10.478,4.623,10.43,13.134H49.464z"/>
<path fill="#9C9E9F" d="M90.01,106.05c-0.962-3.521-3.39-5.629-7.052-5.629c-5.626,0-7.962,5.124-7.962,10.068
	c0,4.985,2.288,9.974,7.962,9.974c4.075,0,6.635-2.425,7.276-6.359h2.933c-0.961,5.262-4.259,8.831-10.209,8.831
	c-7.549,0-10.891-5.445-10.891-12.445c0-6.591,3.798-12.541,10.891-12.541c5.449,0,9.015,2.608,9.84,8.102H90.01z"/>
<path fill="#9C9E9F" d="M98.653,122.297V89.345h2.745v12.538c2.2-2.329,4.348-3.936,7.641-3.936c2.885,0,5.545,0.918,7.232,3.386
	c1.142,1.695,1.19,3.479,1.19,5.449v15.515h-2.745v-15.47c0-4.256-1.739-6.407-6.134-6.407c-3.386,0-5.718,2.195-6.587,4.624
	c-0.549,1.51-0.597,2.836-0.597,4.483v12.77H98.653z"/>
<path fill="#9C9E9F" d="M126.839,122.297h-2.745V98.589h2.745v3.294c2.196-2.329,4.348-3.936,7.641-3.936
	c2.885,0,5.538,0.918,7.232,3.386c1.142,1.695,1.19,3.479,1.19,5.449v15.515h-2.749v-15.47c0-4.256-1.735-6.407-6.13-6.407
	c-3.386,0-5.722,2.195-6.591,4.624c-0.549,1.51-0.593,2.836-0.593,4.483V122.297z"/>
<path fill="#9C9E9F" d="M158.963,100.421c-5.77,0-8.058,4.896-8.058,10.021c0,5.902,2.796,10.021,8.058,10.021
	c5.766,0,8.054-4.94,8.054-10.021C166.969,104.861,164.776,100.421,158.963,100.421 M147.976,110.443
	c0-6.912,3.666-12.493,10.987-12.493c7.412,0,10.979,5.537,10.979,12.493c0,7.505-4.344,12.493-10.979,12.493
	C152.924,122.844,147.976,118.725,147.976,110.443"/>
<rect x="175.385" y="89.346" fill="#9C9E9F" width="2.745" height="32.952"/>
<path fill="#9C9E9F" d="M194.558,100.421c-5.763,0-8.054,4.896-8.054,10.021c0,5.902,2.796,10.021,8.054,10.021
	c5.77,0,8.057-4.94,8.057-10.021C202.566,104.861,200.371,100.421,194.558,100.421 M183.578,110.443
	c0-6.912,3.658-12.493,10.979-12.493c7.416,0,10.986,5.537,10.986,12.493c0,7.505-4.348,12.493-10.986,12.493
	C188.519,122.844,183.578,118.725,183.578,110.443"/>
<path fill="#9C9E9F" d="M220.87,100.421c-4.623,0-8.054,3.342-8.098,9.288c-0.232,5.954,2.421,10.755,8.098,10.755
	c4.989,0,8.01-4.572,8.01-9.933C228.88,104.813,226.043,100.421,220.87,100.421 M228.88,98.59h2.741v21.417
	c0,6.362-2.104,11.992-11.119,11.992c-6.956,0-9.837-3.982-10.021-6.819h2.934c0.821,3.569,3.839,4.347,7.088,4.347
	c7.509,0,8.515-5.581,8.378-11.03c-1.742,2.881-5.125,4.439-8.466,4.439c-7.232,0-10.578-5.902-10.578-12.537
	c0-7.004,3.069-12.449,10.714-12.449c3.021,0,6.64,1.691,8.238,4.808h0.092V98.59z"/>
<path fill="#9C9E9F" d="M238.942,122.298h2.748V98.59h-2.748V122.298z M238.806,93.417h3.021v-4.071h-3.021V93.417z"/>
<path fill="#9C9E9F" d="M265.847,108.795c0-4.623-2.561-8.374-7.501-8.374c-4.855,0-7.413,3.891-7.962,8.374H265.847z
	 M250.384,111.083c-0.052,5.125,2.697,9.38,7.962,9.38c3.57,0,6.358-1.967,7.185-5.448h3.064c-1.37,4.49-4.207,7.921-10.249,7.921
	c-7.597,0-10.895-5.397-10.895-12.401c0-6.912,4.123-12.585,10.895-12.585c6.495,0,10.478,4.623,10.434,13.134H250.384z"/>
<path fill="#9C9E9F" d="M275.729,114.882c0.873,4.075,2.977,5.582,7.092,5.582c3.986,0,5.861-2.104,5.861-4.396
	c0-6.863-15.193-2.012-15.193-11.348c0-3.935,3.069-6.771,8.326-6.771c5.125,0,8.467,2.104,9.155,7.461h-2.792
	c-0.502-3.662-2.974-4.988-6.407-4.988c-3.479,0-5.354,1.646-5.354,4.071c0,6.454,15.194,2.428,15.194,11.531
	c0,4.531-4.075,6.912-9.656,6.912c-5.586,0-8.787-3.57-9.016-8.055H275.729z"/>
<path fill="#CFD1D2" d="M293.072,153.176h2.933v-2.877h-2.933V153.176z M280.273,148.748c-0.059,3.291,2.727,4.746,5.678,4.746
	c3.644,0,5.552-1.831,5.552-4.277c0-3.011-2.973-3.662-3.964-3.888c-3.342-0.84-3.979-0.99-3.979-2.019
	c0-1.12,1.083-1.515,2.02-1.515c1.418,0,2.542,0.432,2.634,2.02h2.841c0-3.084-2.561-4.296-5.346-4.296
	c-2.41,0-4.988,1.286-4.988,4.034c0,2.465,2,3.309,3.982,3.791c1.941,0.542,3.96,0.748,3.96,2.207c0,1.363-1.569,1.661-2.597,1.661
	c-1.569,0-2.955-0.688-2.955-2.465H280.273z M268.145,148.748c-0.055,3.291,2.73,4.746,5.682,4.746c3.644,0,5.549-1.831,5.549-4.277
	c0-3.011-2.97-3.662-3.961-3.888c-3.346-0.84-3.979-0.99-3.979-2.019c0-1.12,1.084-1.515,2.016-1.515
	c1.422,0,2.542,0.432,2.638,2.02h2.837c0-3.084-2.557-4.296-5.342-4.296c-2.409,0-4.988,1.286-4.988,4.034
	c0,2.465,2,3.309,3.979,3.791c1.941,0.542,3.961,0.748,3.961,2.207c0,1.363-1.569,1.661-2.598,1.661
	c-1.569,0-2.951-0.688-2.951-2.465H268.145z M256.879,153.176h10.128v-2.468h-7.195v-3.269h6.466v-2.28h-6.466V142.3h7.044v-2.465
	h-9.977V153.176z M254.768,144.32c-0.354-3.084-2.841-4.801-5.755-4.801c-4.111,0-6.558,3.08-6.558,7.041
	c0,3.85,2.446,6.934,6.558,6.934c3.29,0,5.57-2.111,5.869-5.457h-2.841c-0.225,1.776-1.234,2.992-3.028,2.992
	c-2.635,0-3.625-2.244-3.625-4.469c0-2.333,0.99-4.576,3.625-4.576c1.44,0,2.708,1.01,2.914,2.336H254.768z M240.922,144.32
	c-0.354-3.084-2.841-4.801-5.755-4.801c-4.111,0-6.558,3.08-6.558,7.041c0,3.85,2.446,6.934,6.558,6.934
	c3.29,0,5.567-2.111,5.869-5.457h-2.841c-0.225,1.776-1.233,2.992-3.028,2.992c-2.634,0-3.625-2.244-3.625-4.469
	c0-2.333,0.991-4.576,3.625-4.576c1.44,0,2.712,1.01,2.914,2.336H240.922z M226.668,139.835h-2.933v8.294
	c0,2-0.675,2.899-2.768,2.899c-2.372,0-2.748-1.44-2.748-2.899v-8.294h-2.933v8.294c0,3.647,2.074,5.364,5.681,5.364
	c3.566,0,5.7-1.758,5.7-5.364V139.835z M202.377,148.748c-0.055,3.291,2.727,4.746,5.682,4.746c3.644,0,5.549-1.831,5.549-4.277
	c0-3.011-2.97-3.662-3.961-3.888c-3.346-0.84-3.982-0.99-3.982-2.019c0-1.12,1.087-1.515,2.019-1.515
	c1.422,0,2.542,0.432,2.635,2.02h2.84c0-3.084-2.561-4.296-5.342-4.296c-2.413,0-4.988,1.286-4.988,4.034
	c0,2.465,1.997,3.309,3.979,3.791c1.941,0.542,3.961,0.748,3.961,2.207c0,1.363-1.569,1.661-2.598,1.661
	c-1.569,0-2.951-0.688-2.951-2.465H202.377z M184.534,153.176h2.933v-5.213h2.933c1.478,0,2.02,0.615,2.226,2.019
	c0.147,1.065,0.129,2.351,0.465,3.194h2.936c-0.541-0.729-0.505-2.317-0.56-3.157c-0.096-1.363-0.505-2.729-1.945-3.12v-0.037
	c1.496-0.601,2.111-1.776,2.111-3.346c0-2.019-1.511-3.681-3.905-3.681h-7.192V153.176z M187.467,142.117h3.213
	c1.33,0,2.02,0.556,2.02,1.846c0,1.349-0.689,1.908-2.02,1.908h-3.213V142.117z M169.418,146.56c0,3.85,2.446,6.934,6.559,6.934
	c4.111,0,6.558-3.084,6.558-6.934c0-3.961-2.446-7.041-6.558-7.041C171.864,139.519,169.418,142.599,169.418,146.56 M172.351,146.56
	c0-2.333,0.991-4.576,3.626-4.576c2.634,0,3.625,2.243,3.625,4.576c0,2.225-0.991,4.469-3.625,4.469
	C173.342,151.029,172.351,148.785,172.351,146.56 M158.918,153.176h2.933v-5.512h5.589v-2.28h-5.589V142.3h6.447v-2.465h-9.38
	V153.176z M141.617,153.176h10.128v-2.468h-7.195v-3.269h6.466v-2.28h-6.466V142.3h7.044v-2.465h-9.977V153.176z M140.475,139.835
	h-3.025l-3.01,9.381h-0.037l-2.969-9.381h-3.025l4.333,13.341h3.309L140.475,139.835z M124.334,153.176h2.933v-13.341h-2.933
	V153.176z M110.842,153.176h2.936v-5.213h2.933c1.474,0,2.016,0.615,2.222,2.019c0.151,1.065,0.133,2.351,0.468,3.194h2.933
	c-0.542-0.729-0.505-2.317-0.56-3.157c-0.092-1.363-0.505-2.729-1.942-3.12v-0.037c1.492-0.601,2.111-1.776,2.111-3.346
	c0-2.019-1.514-3.681-3.905-3.681h-7.195V153.176z M113.778,142.117h3.213c1.326,0,2.019,0.556,2.019,1.846
	c0,1.349-0.693,1.908-2.019,1.908h-3.213V142.117z M97,153.176h5.751c4.075,0,6.057-2.877,6.057-6.745
	c0-4.41-2.598-6.596-6.057-6.596H97V153.176z M99.933,142.3h2.089c2.899,0,3.85,1.721,3.85,4.41c0,2.951-1.625,3.998-3.327,3.998
	h-2.612V142.3z M78.314,153.176h2.933v-5.213h2.933c1.478,0,2.019,0.615,2.225,2.019c0.147,1.065,0.129,2.351,0.468,3.194h2.933
	c-0.542-0.729-0.505-2.317-0.56-3.157c-0.096-1.363-0.505-2.729-1.945-3.12v-0.037c1.496-0.601,2.111-1.776,2.111-3.346
	c0-2.019-1.51-3.681-3.905-3.681h-7.191V153.176z M81.247,142.117h3.216c1.326,0,2.015,0.556,2.015,1.846
	c0,1.349-0.689,1.908-2.015,1.908h-3.216V142.117z M75.79,139.835h-2.933v8.294c0,2-0.67,2.899-2.763,2.899
	c-2.376,0-2.749-1.44-2.749-2.899v-8.294h-2.933v8.294c0,3.647,2.074,5.364,5.681,5.364c3.566,0,5.696-1.758,5.696-5.364V139.835z
	 M49.352,146.56c0,3.85,2.45,6.934,6.558,6.934c4.111,0,6.558-3.084,6.558-6.934c0-3.961-2.446-7.041-6.558-7.041
	C51.802,139.519,49.352,142.599,49.352,146.56 M52.289,146.56c0-2.333,0.987-4.576,3.622-4.576c2.638,0,3.625,2.243,3.625,4.576
	c0,2.225-0.987,4.469-3.625,4.469C53.276,151.029,52.289,148.785,52.289,146.56 M40.926,153.176h2.933v-5.121l4.952-8.22h-3.268
	l-3.102,5.269l-3.121-5.269h-3.309l4.915,8.146V153.176z"/>
<polygon fill="#002C55" points="31.936,31.69 43.718,31.69 43.718,48.159 59.236,48.159 59.236,31.69 71.015,31.69 71.015,76.911 
	59.236,76.911 59.236,58.291 43.718,58.291 43.718,76.911 31.936,76.911 "/>
<rect x="78.906" y="31.692" fill="#002C55" width="11.782" height="45.22"/>
<polygon fill="#002C55" points="98.801,31.847 116.036,31.847 123.772,61.789 123.897,61.789 131.635,31.847 148.866,31.847 
	148.866,76.758 137.865,76.758 137.865,42.664 137.736,42.664 128.3,76.758 119.37,76.758 109.931,42.664 109.809,42.664 
	109.809,76.758 98.801,76.758 "/>
<polygon fill="#002C55" points="157.195,31.848 174.43,31.848 182.167,61.79 182.289,61.79 190.029,31.848 207.264,31.848 
	207.264,76.759 196.26,76.759 196.26,42.661 196.131,42.661 186.695,76.759 177.765,76.759 168.325,42.661 168.204,42.661 
	168.204,76.759 157.195,76.759 "/>
<polygon fill="#002C55" points="215.312,31.847 251.097,31.847 251.097,41.22 227.013,41.22 227.013,49.086 249.022,49.086 
	249.022,58.134 227.013,58.134 227.013,66.689 251.723,66.689 251.723,76.758 215.312,76.758 "/>
<polyline fill="#002C55" points="258.396,76.758 258.396,31.847 270.354,31.847 270.354,66.692 291.554,66.692 291.554,76.758 "/>
<path fill="#002C55" d="M289.405,36.597h1.754c1.481,0,2.841-0.07,2.841-1.772c0-1.433-1.238-1.658-2.369-1.658h-2.226V36.597z
	 M287.729,31.815h4.171c2.567,0,3.775,1.01,3.775,3.08c0,1.953-1.233,2.767-2.836,2.94l3.087,4.764h-1.806l-2.936-4.638h-1.78v4.638
	h-1.676V31.815z M291.333,45.089c4.27,0,7.574-3.404,7.574-7.921c0-4.417-3.305-7.826-7.574-7.826c-4.322,0-7.627,3.408-7.627,7.826
	C283.706,41.685,287.011,45.089,291.333,45.089 M291.333,27.987c5.036,0,9.254,3.972,9.254,9.181c0,5.305-4.218,9.277-9.254,9.277
	c-5.062,0-9.307-3.972-9.307-9.277C282.026,31.959,286.271,27.987,291.333,27.987"/>
</svg>
