<?xml version="1.0" encoding="utf-8"?>
<!-- Generator: Adobe Illustrator 24.2.1, SVG Export Plug-In . SVG Version: 6.00 Build 0)  -->
<svg version="1.1" id="Ebene_1" xmlns="http://www.w3.org/2000/svg" xmlns:xlink="http://www.w3.org/1999/xlink" x="0px" y="0px"
	 viewBox="0 0 481.9 198.4" style="enable-background:new 0 0 481.9 198.4;" xml:space="preserve">
<style type="text/css">
	.st0{fill:#9D9D9C;}
	.st1{fill:#D0D0D0;}
	.st2{fill:#002C55;}
	.st3{fill:#FFDE44;}
</style>
<path class="st0" d="M44.5,123.2c-0.6,0.1-1.9,0.6-3.2,0.6c-2.7,0-4.3-1.2-4.3-4.8v-17.6h-3.4v-2.3h3.4v-6.7h2.8v6.7h4.5v2.3h-4.5
	v16.5c0,2.4,0.1,3.4,2.4,3.4c0.7,0,1.5-0.1,2.3-0.3V123.2z"/>
<path class="st0" d="M50.7,111.8c0,5.2,2.7,9.5,8.1,9.5c3.6,0,6.4-2,7.3-5.5h3.1c-1.4,4.5-4.3,8-10.4,8c-7.7,0-11-5.5-11-12.6
	c0-7,4.2-12.8,11-12.8c6.6,0,10.6,4.7,10.6,13.3H50.7z M66.4,109.4c0-4.7-2.6-8.5-7.6-8.5c-4.9,0-7.5,3.9-8.1,8.5H66.4z"/>
<path class="st0" d="M91.8,106.7c-1-3.6-3.4-5.7-7.1-5.7c-5.7,0-8.1,5.2-8.1,10.2c0,5.1,2.3,10.1,8.1,10.1c4.1,0,6.7-2.5,7.4-6.4h3
	c-1,5.3-4.3,9-10.3,9c-7.7,0-11-5.5-11-12.6c0-6.7,3.8-12.7,11-12.7c5.5,0,9.1,2.6,10,8.2H91.8z"/>
<path class="st0" d="M100.6,123.1V89.7h2.8v12.7c2.2-2.4,4.4-4,7.7-4c2.9,0,5.6,0.9,7.3,3.4c1.2,1.7,1.2,3.5,1.2,5.5v15.7h-2.8
	v-15.7c0-4.3-1.8-6.5-6.2-6.5c-3.4,0-5.8,2.2-6.7,4.7c-0.6,1.5-0.6,2.9-0.6,4.5v12.9H100.6z"/>
<path class="st0" d="M129.1,123.1h-2.8v-24h2.8v3.3c2.2-2.4,4.4-4,7.7-4c2.9,0,5.6,0.9,7.3,3.4c1.2,1.7,1.2,3.5,1.2,5.5v15.7h-2.8
	v-15.7c0-4.3-1.8-6.5-6.2-6.5c-3.4,0-5.8,2.2-6.7,4.7c-0.6,1.5-0.6,2.9-0.6,4.5V123.1z"/>
<path class="st0" d="M150.5,111.1c0-7,3.7-12.7,11.1-12.7c7.5,0,11.1,5.6,11.1,12.7c0,7.6-4.4,12.7-11.1,12.7
	C155.6,123.7,150.5,119.5,150.5,111.1 M161.7,100.9c-5.8,0-8.2,5-8.2,10.2c0,6,2.8,10.2,8.2,10.2c5.8,0,8.2-5,8.2-10.2
	C169.8,105.4,167.6,100.9,161.7,100.9"/>
<rect x="178.3" y="89.7" class="st0" width="2.8" height="33.4"/>
<path class="st0" d="M186.6,111.1c0-7,3.7-12.7,11.1-12.7c7.5,0,11.1,5.6,11.1,12.7c0,7.6-4.4,12.7-11.1,12.7
	C191.6,123.7,186.6,119.5,186.6,111.1 M197.7,100.9c-5.8,0-8.2,5-8.2,10.2c0,6,2.8,10.2,8.2,10.2c5.8,0,8.2-5,8.2-10.2
	C205.9,105.4,203.6,100.9,197.7,100.9"/>
<path class="st0" d="M232.5,99.1h2.8v21.7c0,6.5-2.1,12.2-11.3,12.2c-7.1,0-10-4-10.2-6.9h3c0.8,3.6,3.9,4.4,7.2,4.4
	c7.6,0,8.6-5.7,8.5-11.2c-1.8,2.9-5.2,4.5-8.6,4.5c-7.3,0-10.7-6-10.7-12.7c0-7.1,3.1-12.6,10.9-12.6c3.1,0,6.7,1.7,8.3,4.9h0.1
	V99.1z M224.4,100.9c-4.7,0-8.2,3.4-8.2,9.4c-0.2,6,2.5,10.9,8.2,10.9c5.1,0,8.1-4.6,8.1-10.1C232.5,105.4,229.7,100.9,224.4,100.9"
	/>
<path class="st0" d="M242.7,123.1h2.8v-24h-2.8V123.1z M242.6,93.8h3.1v-4.1h-3.1V93.8z"/>
<path class="st0" d="M254.3,111.8c-0.1,5.2,2.7,9.5,8.1,9.5c3.6,0,6.4-2,7.3-5.5h3.1c-1.4,4.5-4.3,8-10.4,8c-7.7,0-11-5.5-11-12.6
	c0-7,4.2-12.8,11-12.8c6.6,0,10.6,4.7,10.6,13.3H254.3z M270,109.4c0-4.7-2.6-8.5-7.6-8.5c-4.9,0-7.5,3.9-8.1,8.5H270z"/>
<path class="st0" d="M280,115.6c0.9,4.1,3,5.7,7.2,5.7c4,0,5.9-2.1,5.9-4.5c0-7-15.4-2-15.4-11.5c0-4,3.1-6.9,8.4-6.9
	c5.2,0,8.6,2.1,9.3,7.6h-2.8c-0.5-3.7-3-5.1-6.5-5.1c-3.5,0-5.4,1.7-5.4,4.1c0,6.5,15.4,2.5,15.4,11.7c0,4.6-4.1,7-9.8,7
	c-5.7,0-8.9-3.6-9.1-8.2H280z"/>
<path class="st1" d="M42.1,154.4h3v-5.2l5-8.3h-3.3l-3.1,5.3l-3.2-5.3h-3.4l5,8.3V154.4z M53.6,147.7c0-2.4,1-4.6,3.7-4.6
	c2.7,0,3.7,2.3,3.7,4.6c0,2.3-1,4.5-3.7,4.5C54.6,152.2,53.6,150,53.6,147.7 M50.6,147.7c0,3.9,2.5,7,6.6,7c4.2,0,6.6-3.1,6.6-7
	c0-4-2.5-7.1-6.6-7.1C53.1,140.6,50.6,143.7,50.6,147.7 M77.4,140.9h-3v8.4c0,2-0.7,2.9-2.8,2.9c-2.4,0-2.8-1.5-2.8-2.9v-8.4h-3v8.4
	c0,3.7,2.1,5.4,5.8,5.4c3.6,0,5.8-1.8,5.8-5.4V140.9z M82.9,143.2h3.3c1.3,0,2,0.6,2,1.9c0,1.4-0.7,1.9-2,1.9h-3.3V143.2z
	 M79.9,154.4h3v-5.3h3c1.5,0,2,0.6,2.3,2c0.2,1.1,0.1,2.4,0.5,3.2h3c-0.5-0.7-0.5-2.4-0.6-3.2c-0.1-1.4-0.5-2.8-2-3.2v0
	c1.5-0.6,2.1-1.8,2.1-3.4c0-2-1.5-3.7-4-3.7h-7.3V154.4z M101.8,143.4h2.1c2.9,0,3.9,1.7,3.9,4.5c0,3-1.7,4.1-3.4,4.1h-2.7V143.4z
	 M98.9,154.4h5.8c4.1,0,6.1-2.9,6.1-6.8c0-4.5-2.6-6.7-6.1-6.7h-5.8V154.4z M115.9,143.2h3.3c1.3,0,2,0.6,2,1.9c0,1.4-0.7,1.9-2,1.9
	h-3.3V143.2z M112.9,154.4h3v-5.3h3c1.5,0,2,0.6,2.3,2c0.2,1.1,0.1,2.4,0.5,3.2h3c-0.5-0.7-0.5-2.4-0.6-3.2c-0.1-1.4-0.5-2.8-2-3.2
	v0c1.5-0.6,2.1-1.8,2.1-3.4c0-2-1.5-3.7-4-3.7h-7.3V154.4z M126.6,154.4h3v-13.5h-3V154.4z M142.9,140.9h-3.1l-3,9.5h0l-3-9.5h-3.1
	l4.4,13.5h3.4L142.9,140.9z M144.1,154.4h10.3v-2.5h-7.3v-3.3h6.6v-2.3h-6.6v-2.9h7.1v-2.5h-10.1V154.4z M161.6,154.4h3v-5.6h5.7
	v-2.3h-5.7v-3.1h6.5v-2.5h-9.5V154.4z M175.2,147.7c0-2.4,1-4.6,3.7-4.6c2.7,0,3.7,2.3,3.7,4.6c0,2.3-1,4.5-3.7,4.5
	C176.2,152.2,175.2,150,175.2,147.7 M172.3,147.7c0,3.9,2.5,7,6.6,7c4.2,0,6.6-3.1,6.6-7c0-4-2.5-7.1-6.6-7.1
	C174.8,140.6,172.3,143.7,172.3,147.7 M190.6,143.2h3.3c1.3,0,2,0.6,2,1.9c0,1.4-0.7,1.9-2,1.9h-3.3V143.2z M187.6,154.4h3v-5.3h3
	c1.5,0,2,0.6,2.3,2c0.1,1.1,0.1,2.4,0.5,3.2h3c-0.6-0.7-0.5-2.4-0.6-3.2c-0.1-1.4-0.5-2.8-2-3.2v0c1.5-0.6,2.1-1.8,2.1-3.4
	c0-2-1.5-3.7-4-3.7h-7.3V154.4z M205.7,149.9c-0.1,3.3,2.8,4.8,5.8,4.8c3.7,0,5.6-1.9,5.6-4.3c0-3-3-3.7-4-3.9c-3.4-0.9-4-1-4-2
	c0-1.1,1.1-1.5,2-1.5c1.4,0,2.6,0.4,2.7,2h2.9c0-3.1-2.6-4.4-5.4-4.4c-2.4,0-5.1,1.3-5.1,4.1c0,2.5,2,3.4,4,3.8c2,0.5,4,0.8,4,2.2
	c0,1.4-1.6,1.7-2.6,1.7c-1.6,0-3-0.7-3-2.5H205.7z M230.3,140.9h-3v8.4c0,2-0.7,2.9-2.8,2.9c-2.4,0-2.8-1.5-2.8-2.9v-8.4h-3v8.4
	c0,3.7,2.1,5.4,5.8,5.4c3.6,0,5.8-1.8,5.8-5.4V140.9z M244.7,145.4c-0.4-3.1-2.9-4.9-5.8-4.9c-4.2,0-6.7,3.1-6.7,7.1
	c0,3.9,2.5,7,6.7,7c3.3,0,5.6-2.1,5.9-5.5H242c-0.2,1.8-1.3,3-3.1,3c-2.7,0-3.7-2.3-3.7-4.5c0-2.4,1-4.6,3.7-4.6c1.5,0,2.7,1,3,2.4
	H244.7z M258.8,145.4c-0.4-3.1-2.9-4.9-5.8-4.9c-4.2,0-6.6,3.1-6.6,7.1c0,3.9,2.5,7,6.6,7c3.3,0,5.6-2.1,5.9-5.5H256
	c-0.2,1.8-1.3,3-3.1,3c-2.7,0-3.7-2.3-3.7-4.5c0-2.4,1-4.6,3.7-4.6c1.5,0,2.7,1,3,2.4H258.8z M260.9,154.4h10.3v-2.5h-7.3v-3.3h6.6
	v-2.3h-6.6v-2.9h7.1v-2.5h-10.1V154.4z M272.3,149.9c-0.1,3.3,2.8,4.8,5.8,4.8c3.7,0,5.6-1.9,5.6-4.3c0-3-3-3.7-4-3.9
	c-3.4-0.9-4-1-4-2c0-1.1,1.1-1.5,2-1.5c1.4,0,2.6,0.4,2.7,2h2.9c0-3.1-2.6-4.4-5.4-4.4c-2.4,0-5.1,1.3-5.1,4.1c0,2.5,2,3.4,4,3.8
	c2,0.5,4,0.8,4,2.2c0,1.4-1.6,1.7-2.6,1.7c-1.6,0-3-0.7-3-2.5H272.3z M284.6,149.9c-0.1,3.3,2.8,4.8,5.8,4.8c3.7,0,5.6-1.9,5.6-4.3
	c0-3-3-3.7-4-3.9c-3.4-0.9-4-1-4-2c0-1.1,1.1-1.5,2-1.5c1.4,0,2.6,0.4,2.7,2h2.9c0-3.1-2.6-4.4-5.4-4.4c-2.4,0-5.1,1.3-5.1,4.1
	c0,2.5,2,3.4,4,3.8c2,0.5,4,0.8,4,2.2c0,1.4-1.6,1.7-2.6,1.7c-1.6,0-3-0.7-3-2.5H284.6z M297.6,154.4h3v-2.9h-3V154.4z"/>
<polygon class="st2" points="367.6,133.5 372.6,133.5 372.6,134.3 368.6,134.3 368.6,136.7 372.1,136.7 372.1,137.6 368.6,137.6 
	368.6,141.1 367.6,141.1 "/>
<path class="st2" d="M376,135.4c1.7,0,2.7,1.3,2.7,2.9c0,1.6-0.9,2.9-2.7,2.9s-2.7-1.3-2.7-2.9C373.3,136.7,374.2,135.4,376,135.4
	 M376,140.4c0.9,0,1.7-0.7,1.7-2.1c0-1.3-0.8-2.1-1.7-2.1c-0.9,0-1.7,0.7-1.7,2.1C374.2,139.7,375,140.4,376,140.4 M374.5,133.7h1
	v1.1h-1V133.7z M376.5,133.7h1v1.1h-1V133.7z"/>
<path class="st2" d="M379.7,135.6h0.9v1.2h0c0.4-0.9,1-1.3,2-1.3v1c-1.5,0-2,0.8-2,2.2v2.5h-0.9V135.6z"/>
<path class="st2" d="M388,141.1h-0.9v-0.7h0c-0.3,0.6-1,0.9-1.8,0.9c-1.7,0-2.5-1.3-2.5-2.9c0-1.6,0.8-2.9,2.5-2.9
	c0.6,0,1.4,0.2,1.8,0.9h0v-2.8h0.9V141.1z M385.4,140.4c1.2,0,1.7-1,1.7-2.1c0-1.1-0.5-2.1-1.7-2.1c-1.2,0-1.7,1.1-1.7,2.1
	C383.7,139.4,384.3,140.4,385.4,140.4"/>
<path class="st2" d="M394.1,139.3c-0.2,1.2-1.1,1.9-2.4,1.9c-1.8,0-2.6-1.2-2.6-2.9c0-1.7,1.1-2.9,2.6-2.9c2,0,2.6,1.8,2.5,3.2h-4.1
	c0,1,0.5,1.8,1.7,1.8c0.7,0,1.3-0.4,1.4-1.1H394.1z M393.2,137.8c0-0.9-0.7-1.6-1.6-1.6c-0.9,0-1.5,0.7-1.6,1.6H393.2z"/>
<path class="st2" d="M395.1,135.6h0.9v1.2h0c0.4-0.9,1-1.3,2-1.3v1c-1.5,0-2,0.8-2,2.2v2.5h-0.9V135.6z"/>
<path class="st2" d="M399.9,135.6h1.1v0.8h-1.1v3.4c0,0.4,0.1,0.5,0.7,0.5h0.4v0.8h-0.7c-0.9,0-1.3-0.2-1.3-1.2v-3.5h-0.9v-0.8h0.9
	v-1.7h0.9V135.6z"/>
<path class="st2" d="M406.7,139.3c-0.2,1.2-1.1,1.9-2.4,1.9c-1.8,0-2.6-1.2-2.6-2.9c0-1.7,1.1-2.9,2.6-2.9c2,0,2.5,1.8,2.5,3.2h-4.1
	c0,1,0.5,1.8,1.7,1.8c0.7,0,1.3-0.4,1.4-1.1H406.7z M405.9,137.8c0-0.9-0.7-1.6-1.6-1.6c-0.9,0-1.5,0.7-1.6,1.6H405.9z"/>
<path class="st2" d="M411.5,137.3c-0.1-0.7-0.6-1.1-1.4-1.1c-1.3,0-1.7,1-1.7,2.2c0,1,0.5,2,1.6,2c0.9,0,1.4-0.5,1.5-1.3h0.9
	c-0.2,1.3-1,2.1-2.4,2.1c-1.7,0-2.6-1.2-2.6-2.8c0-1.7,0.9-3,2.6-3c1.2,0,2.3,0.6,2.4,1.9H411.5z"/>
<path class="st2" d="M413.5,133.5h0.9v2.9h0c0.3-0.7,1.1-0.9,1.7-0.9c1.5,0,1.9,0.8,1.9,2v3.6h-0.9v-3.7c0-0.7-0.4-1.1-1.1-1.1
	c-1.1,0-1.6,0.7-1.6,1.7v3.1h-0.9V133.5z"/>
<path class="st2" d="M419.4,135.6h0.9v0.9h0c0.4-0.7,1-1,1.8-1c1.4,0,1.9,0.8,1.9,2v3.6h-0.9v-3.7c0-0.7-0.4-1.1-1.1-1.1
	c-1.1,0-1.6,0.7-1.6,1.7v3.1h-0.9V135.6z"/>
<path class="st2" d="M425.4,141.1h0.9v-5.5h-0.9V141.1z M425.4,134.6h0.9v-1.1h-0.9V134.6z"/>
<polygon class="st2" points="427.7,133.5 428.7,133.5 428.7,138 431.2,135.6 432.4,135.6 430.2,137.6 432.5,141.1 431.4,141.1 
	429.5,138.2 428.7,139 428.7,141.1 427.7,141.1 "/>
<polygon class="st2" points="356.6,164.9 358,164.9 360.4,171.3 362.8,164.9 364.2,164.9 364.2,172.5 363.2,172.5 363.2,166.2 
	363.2,166.2 360.8,172.5 359.9,172.5 357.6,166.2 357.5,166.2 357.5,172.5 356.6,172.5 "/>
<path class="st2" d="M368.1,166.9c1.7,0,2.7,1.3,2.7,2.9c0,1.6-0.9,2.9-2.7,2.9c-1.7,0-2.7-1.3-2.7-2.9
	C365.4,168.1,366.3,166.9,368.1,166.9 M368.1,171.8c0.9,0,1.7-0.7,1.7-2.1c0-1.3-0.8-2.1-1.7-2.1c-0.9,0-1.7,0.7-1.7,2.1
	C366.4,171.1,367.1,171.8,368.1,171.8"/>
<path class="st2" d="M371.8,167h0.9v0.9h0c0.4-0.7,1-1,1.8-1c1.4,0,1.9,0.8,1.9,2v3.6h-0.9v-3.7c0-0.7-0.4-1.1-1.1-1.1
	c-1.1,0-1.6,0.7-1.6,1.7v3.1h-0.9V167z"/>
<path class="st2" d="M379,167h1.1v0.8H379v3.4c0,0.4,0.1,0.5,0.7,0.5h0.4v0.8h-0.7c-0.9,0-1.3-0.2-1.3-1.2v-3.5h-0.9V167h0.9v-1.7
	h0.9V167z"/>
<path class="st2" d="M386,172.5c-0.2,0.1-0.4,0.1-0.7,0.1c-0.5,0-0.8-0.3-0.8-0.9c-0.5,0.6-1.2,0.9-1.9,0.9c-1,0-1.8-0.4-1.8-1.5
	c0-1.2,0.9-1.5,1.9-1.7c1-0.2,1.9-0.1,1.9-0.8c0-0.8-0.7-0.9-1.2-0.9c-0.8,0-1.3,0.2-1.4,1H381c0.1-1.4,1.1-1.8,2.3-1.8
	c1,0,2.1,0.2,2.1,1.5v2.8c0,0.4,0,0.6,0.3,0.6c0.1,0,0.2,0,0.3-0.1V172.5z M384.5,169.6c-0.4,0.3-1,0.3-1.6,0.4
	c-0.6,0.1-1.1,0.3-1.1,1c0,0.6,0.5,0.8,1.1,0.8c1.2,0,1.7-0.7,1.7-1.2V169.6z"/>
<path class="st2" d="M391.6,172c0,1.8-0.8,2.7-2.6,2.7c-1,0-2.2-0.4-2.3-1.6h0.9c0,0.7,0.8,0.9,1.4,0.9c1.2,0,1.7-0.9,1.7-2.1v-0.4
	h0c-0.3,0.7-1,1-1.7,1c-1.6,0-2.5-1.3-2.5-2.8c0-1.3,0.6-2.9,2.5-2.9c0.7,0,1.3,0.3,1.6,0.9h0h0V167h0.8V172z M390.7,169.6
	c0-1-0.4-2-1.6-2c-1.2,0-1.6,1-1.6,2c0,1,0.4,2.1,1.6,2.1C390.2,171.8,390.7,170.7,390.7,169.6"/>
<path class="st2" d="M397.6,170.7c-0.2,1.2-1.1,1.9-2.4,1.9c-1.8,0-2.6-1.2-2.6-2.9c0-1.7,1.1-2.9,2.6-2.9c1.9,0,2.5,1.8,2.5,3.2
	h-4.1c0,1,0.5,1.8,1.7,1.8c0.7,0,1.3-0.4,1.4-1.1H397.6z M396.8,169.2c0-0.9-0.7-1.6-1.6-1.6c-0.9,0-1.5,0.7-1.6,1.6H396.8z"/>
<path class="st2" d="M399.9,167h1.1v0.8h-1.1v3.4c0,0.4,0.1,0.5,0.7,0.5h0.4v0.8h-0.7c-0.9,0-1.3-0.2-1.3-1.2v-3.5h-0.9V167h0.9
	v-1.7h0.9V167z"/>
<path class="st2" d="M406.7,170.7c-0.2,1.2-1.1,1.9-2.4,1.9c-1.8,0-2.6-1.2-2.6-2.9c0-1.7,1.1-2.9,2.6-2.9c2,0,2.5,1.8,2.5,3.2h-4.1
	c0,1,0.5,1.8,1.7,1.8c0.7,0,1.3-0.4,1.4-1.1H406.7z M405.9,169.2c0-0.9-0.7-1.6-1.6-1.6c-0.9,0-1.5,0.7-1.6,1.6H405.9z"/>
<path class="st2" d="M411.5,168.8c-0.1-0.7-0.6-1.1-1.4-1.1c-1.3,0-1.7,1-1.7,2.2c0,1,0.5,2,1.6,2c0.9,0,1.4-0.5,1.5-1.3h0.9
	c-0.2,1.3-1,2.1-2.4,2.1c-1.7,0-2.6-1.2-2.6-2.8c0-1.7,0.9-3,2.6-3c1.2,0,2.2,0.6,2.4,1.9H411.5z"/>
<path class="st2" d="M413.5,164.9h0.9v2.9h0c0.3-0.7,1.1-0.9,1.7-0.9c1.5,0,1.9,0.8,1.9,2v3.6h-0.9v-3.7c0-0.7-0.4-1.1-1.1-1.1
	c-1.1,0-1.6,0.7-1.6,1.7v3.1h-0.9V164.9z"/>
<path class="st2" d="M419.4,167h0.9v0.9h0c0.4-0.7,1-1,1.8-1c1.4,0,1.9,0.8,1.9,2v3.6h-0.9v-3.7c0-0.7-0.4-1.1-1.1-1.1
	c-1.1,0-1.6,0.7-1.6,1.7v3.1h-0.9V167z"/>
<path class="st2" d="M425.4,172.5h0.9V167h-0.9V172.5z M425.4,166h0.9v-1.1h-0.9V166z"/>
<polygon class="st2" points="427.7,164.9 428.7,164.9 428.7,169.4 431.2,167 432.4,167 430.2,169 432.5,172.5 431.4,172.5 
	429.5,169.6 428.7,170.4 428.7,172.5 427.7,172.5 "/>
<polygon class="st2" points="32.9,31.3 44.9,31.3 44.9,48 60.6,48 60.6,31.3 72.5,31.3 72.5,77.1 60.6,77.1 60.6,58.2 44.9,58.2 
	44.9,77.1 32.9,77.1 "/>
<rect x="80.5" y="31.3" class="st2" width="11.9" height="45.8"/>
<polygon class="st2" points="100.7,31.5 118.2,31.5 126,61.8 126.1,61.8 134,31.5 151.4,31.5 151.4,77 140.3,77 140.3,42.4 
	140.2,42.4 130.6,77 121.5,77 112,42.4 111.9,42.4 111.9,77 100.7,77 "/>
<polygon class="st2" points="159.9,31.5 177.3,31.5 185.2,61.8 185.3,61.8 193.2,31.5 210.6,31.5 210.6,77 199.5,77 199.5,42.4 
	199.3,42.4 189.8,77 180.7,77 171.2,42.4 171,42.4 171,77 159.9,77 "/>
<polygon class="st2" points="218.8,31.5 255,31.5 255,40.9 230.6,40.9 230.6,48.9 252.9,48.9 252.9,58.1 230.6,58.1 230.6,66.8 
	255.7,66.8 255.7,77 218.8,77 "/>
<polyline class="st2" points="262.4,77 262.4,31.5 274.6,31.5 274.6,66.8 296,66.8 296,77 "/>
<path class="st2" d="M295.8,27.5c5.1,0,9.4,4,9.4,9.3c0,5.4-4.3,9.4-9.4,9.4c-5.1,0-9.4-4-9.4-9.4C286.4,31.6,290.7,27.5,295.8,27.5
	 M295.8,44.9c4.3,0,7.7-3.5,7.7-8c0-4.5-3.4-7.9-7.7-7.9c-4.4,0-7.7,3.5-7.7,7.9C288.1,41.4,291.4,44.9,295.8,44.9 M292.2,31.4h4.2
	c2.6,0,3.8,1,3.8,3.1c0,2-1.3,2.8-2.9,3l3.1,4.8h-1.8l-3-4.7h-1.8v4.7h-1.7V31.4z M293.9,36.3h1.8c1.5,0,2.9-0.1,2.9-1.8
	c0-1.5-1.3-1.7-2.4-1.7h-2.3V36.3z"/>
<path class="st0" d="M476.1,79.4c-2.5-2.5-5.9-3.8-10.3-3.9c-8.2-0.1-92-0.1-160.3,0V77c68.3,0,152.1,0,160.3,0c4,0,7.1,1.2,9.3,3.4
	c3.4,3.5,3.4,8.5,3.4,8.6v65.9v4.3v21.2c0,3.6-0.5,7.7-4.1,11.3c-3.7,3.7-10.5,4-10.6,4c0,0-104.1,0.1-173.9,0.1h-11.4
	c-3.6,0-7.7-0.5-11.3-4.1c-3.7-3.7-4-10.5-4-10.6l0-6.4l-1.4,0l0,6.4c0,0.3,0.3,7.4,4.4,11.6c4,4,8.5,4.5,12.3,4.5H290h6.5h3.3h4.3
	c68.9,0,159.8-0.1,159.9-0.1c0.3,0,7.4-0.3,11.6-4.4c4-4,4.5-8.5,4.5-12.3v-21.2v-4.3V89C479.9,88.8,480,83.4,476.1,79.4"/>
<polygon class="st3" points="440.5,124.9 440.5,97.5 439.2,97.5 439.2,124.9 322.8,124.9 322.8,126.1 439.2,126.1 439.2,174.7 
	440.5,174.7 440.5,126.1 "/>
<path class="st3" d="M23,75.7h-6.2c-1.2,0-11.7-0.3-11.8-12.4c0-1.3,0-4.3,0-8.8l0-36.3C5,14.6,5.5,10.5,9,7
	c3.6-3.6,10.3-3.9,10.4-3.9c0,0,96.5,0,164.8,0c39.7,0,61.8,0,65.7,0c3.9,0,7,1.2,9.1,3.4c3.3,3.4,3.3,8.4,3.3,8.4v6.6h1.4v-6.6
	c0-0.2,0.1-5.6-3.7-9.4c-2.4-2.5-5.8-3.8-10.1-3.8c-3.9,0-26.1,0-65.7,0c-68.3,0-164.8,0-164.9,0C19.1,1.7,12.1,1.9,8,6
	c-3.9,3.9-4.4,8.3-4.4,12.1v36.3l0,0.8c0,4.1,0,6.9,0,8.1c0.1,13.7,12.6,13.8,13.2,13.8h0l6.2,0V75.7z"/>
<polygon class="st2" points="323.3,108.6 325.8,108.6 325.8,113 330.4,113 330.4,108.6 332.9,108.6 332.9,120 330.4,120 
	330.4,115.1 325.8,115.1 325.8,120 323.3,120 "/>
<rect x="335.1" y="108.6" class="st2" width="2.5" height="11.3"/>
<polygon class="st2" points="339.8,108.6 343.3,108.6 345.9,116.4 346,116.4 348.5,108.6 352,108.6 352,120 349.7,120 349.7,111.9 
	349.6,111.9 346.8,120 344.9,120 342.1,112 342.1,112 342.1,120 339.8,120 "/>
<polygon class="st2" points="354.2,108.6 357.7,108.6 360.4,116.4 360.4,116.4 362.9,108.6 366.4,108.6 366.4,120 364.1,120 
	364.1,111.9 364,111.9 361.3,120 359.3,120 356.6,112 356.5,112 356.5,120 354.2,120 "/>
<polygon class="st2" points="368.6,108.6 377.1,108.6 377.1,110.7 371.1,110.7 371.1,113.1 376.6,113.1 376.6,115.1 371.1,115.1 
	371.1,117.9 377.2,117.9 377.2,120 368.6,120 "/>
<polygon class="st2" points="378.9,108.6 381.4,108.6 381.4,117.9 386.9,117.9 386.9,120 378.9,120 "/>
<polygon class="st2" points="399.1,120 396.7,120 394.7,112.2 394.7,112.2 392.8,120 390.3,120 387.3,108.6 389.8,108.6 
	391.6,116.3 391.6,116.3 393.6,108.6 395.9,108.6 397.9,116.4 397.9,116.4 399.7,108.6 402.2,108.6 "/>
<polygon class="st2" points="403.3,108.6 411.8,108.6 411.8,110.7 405.8,110.7 405.8,113.1 411.3,113.1 411.3,115.1 405.8,115.1 
	405.8,117.9 412,117.9 412,120 403.3,120 "/>
<path class="st2" d="M416.1,113.8h2.7c1.1,0,1.7-0.5,1.7-1.6c0-1.1-0.6-1.6-1.7-1.6h-2.7V113.8z M413.6,108.6h6.1
	c2,0,3.3,1.4,3.3,3.1c0,1.3-0.5,2.3-1.8,2.8v0c1.2,0.3,1.6,1.5,1.7,2.7c0,0.7,0,2.1,0.5,2.7h-2.5c-0.3-0.7-0.3-1.8-0.4-2.7
	c-0.2-1.2-0.6-1.7-1.9-1.7h-2.5v4.4h-2.5V108.6z"/>
<polygon class="st2" points="425.1,108.6 427.6,108.6 427.6,113.3 432,108.6 435.2,108.6 430.7,113.1 435.6,120 432.5,120 
	429,114.9 427.6,116.3 427.6,120 425.1,120 "/>
<g>
	<path class="st2" d="M371.7,148.8h1v3.8l3.9-3.8h1.3l-3.2,3.1l3.3,4.5h-1.3l-2.8-3.9l-1.3,1.2v2.7h-1V148.8z"/>
	<path class="st2" d="M378.7,148.8h0.9v7.6h-0.9V148.8z"/>
	<path class="st2" d="M385.7,154.7c-0.2,1.2-1.1,1.9-2.4,1.9c-1.8,0-2.6-1.2-2.6-2.9c0-1.7,1.1-2.9,2.6-2.9c2,0,2.6,1.8,2.5,3.2
		h-4.1c0,1,0.5,1.8,1.7,1.8c0.7,0,1.3-0.4,1.4-1.1H385.7z M384.9,153.2c0-0.9-0.7-1.6-1.6-1.6c-1,0-1.5,0.7-1.6,1.6H384.9z"/>
	<path class="st2" d="M386.8,148.8h0.9v2.9h0c0.3-0.6,1-0.9,1.8-0.9c1.7,0,2.5,1.3,2.5,2.9c0,1.6-0.8,2.9-2.5,2.9
		c-0.6,0-1.4-0.2-1.8-0.9h0v0.7h-0.9V148.8z M389.4,151.6c-1.2,0-1.7,1-1.7,2.1c0,1.1,0.5,2.1,1.7,2.1c1.2,0,1.7-1.1,1.7-2.1
		C391.1,152.6,390.5,151.6,389.4,151.6z"/>
	<path class="st2" d="M397.8,154.7c-0.2,1.2-1.1,1.9-2.4,1.9c-1.8,0-2.6-1.2-2.6-2.9c0-1.7,1.1-2.9,2.6-2.9c2,0,2.6,1.8,2.5,3.2
		h-4.1c0,1,0.5,1.8,1.7,1.8c0.7,0,1.3-0.4,1.4-1.1H397.8z M396.9,153.2c0-0.9-0.7-1.6-1.6-1.6c-1,0-1.5,0.7-1.6,1.6H396.9z"/>
	<path class="st2" d="M400.1,150.9h1.1v0.8h-1.1v3.4c0,0.4,0.1,0.5,0.7,0.5h0.4v0.8h-0.7c-0.9,0-1.3-0.2-1.3-1.2v-3.5h-0.9v-0.8h0.9
		v-1.7h0.9V150.9z"/>
	<path class="st2" d="M406.9,154.7c-0.2,1.2-1.1,1.9-2.4,1.9c-1.8,0-2.6-1.2-2.6-2.9c0-1.7,1.1-2.9,2.6-2.9c2,0,2.6,1.8,2.5,3.2
		h-4.1c0,1,0.5,1.8,1.7,1.8c0.7,0,1.3-0.4,1.4-1.1H406.9z M406,153.2c0-0.9-0.7-1.6-1.6-1.6c-1,0-1.5,0.7-1.6,1.6H406z"/>
	<path class="st2" d="M411.7,152.7c-0.1-0.7-0.6-1.1-1.4-1.1c-1.3,0-1.7,1-1.7,2.2c0,1,0.5,2,1.6,2c0.9,0,1.4-0.5,1.5-1.3h0.9
		c-0.2,1.3-1,2.1-2.4,2.1c-1.7,0-2.6-1.2-2.6-2.8c0-1.7,0.9-3,2.6-3c1.2,0,2.3,0.6,2.4,1.9H411.7z"/>
	<path class="st2" d="M413.7,148.8h0.9v2.9h0c0.3-0.7,1.1-0.9,1.7-0.9c1.5,0,1.9,0.8,1.9,2v3.6h-0.9v-3.7c0-0.7-0.4-1.1-1.1-1.1
		c-1.1,0-1.6,0.7-1.6,1.7v3.1h-0.9V148.8z"/>
	<path class="st2" d="M419.6,150.9h0.9v0.9h0c0.4-0.7,1-1,1.8-1c1.5,0,1.9,0.8,1.9,2v3.6h-0.9v-3.7c0-0.7-0.4-1.1-1.1-1.1
		c-1.1,0-1.6,0.7-1.6,1.7v3.1h-0.9V150.9z"/>
	<path class="st2" d="M426.5,149.9h-0.9v-1.1h0.9V149.9z M425.6,150.9h0.9v5.5h-0.9V150.9z"/>
	<path class="st2" d="M427.9,148.8h0.9v4.5l2.5-2.4h1.2l-2.2,2l2.4,3.5h-1.2l-1.9-2.9l-0.9,0.8v2.1h-0.9V148.8z"/>
</g>
<path class="st2" d="M457.1,106.5v-1.9h-4.9v-4.9h4.9v-1.9h-10.9v1.9h4.3v4.9h-4.3v1.9H457.1z M453.2,109.9c1.4,0,2.8,0.6,2.8,2.2
	c0,1.4-1.2,2.2-2.8,2.2c-1.7,0-2.8-0.7-2.8-2.2C450.4,110.7,451.7,109.9,453.2,109.9 M457.1,116v-1.6H456v0c1-0.5,1.3-1.7,1.3-2.7
	c0-2.3-2-3.4-4.1-3.4c-2.3,0-4.2,1.2-4.2,3.7c0,0.9,0.5,1.9,1.2,2.3v0h-4v1.7H457.1z M457.1,129.3v-1.7h-4.7c-1.3,0-2-0.8-2-1.7
	c0-1.1,0.6-1.4,1.7-1.4h5.1v-1.7h-4.6c-1.3,0-2.1-0.5-2.1-1.7c0-1.4,0.9-1.4,2.1-1.4h4.6v-1.7h-5.4c-1.9,0-2.6,1-2.6,2.6
	c0,1.2,0.5,1.9,1.3,2.5c-0.9,0.3-1.3,1.2-1.3,2.2c0,1.3,0.5,1.9,1.3,2.4l0,0h-1.1v1.6H457.1z M451.4,131.1v4.6h1.4v-2.9
	c1.8,0,3,1.1,3,3c0,2.3-2.1,3.3-4.1,3.3c-2.1,0-4.1-1-4.1-3.3c0-1.4,0.7-2.6,2.2-2.8v-1.9c-2.5,0.3-3.7,2.3-3.7,4.7
	c0,3.2,2.6,5.2,5.7,5.2c3.1,0,5.7-2,5.7-5.2c0-1.3-0.4-2.3-1.5-3.3l1.3-0.3v-1.2H451.4z"/>
</svg>
